<?xml version="1.0" encoding="iso-8859-1"?>
<!-- Generator: Adobe Illustrator 19.0.0, SVG Export Plug-In . SVG Version: 6.00 Build 0)  -->
<svg version="1.1" id="Layer_1" xmlns="http://www.w3.org/2000/svg" xmlns:xlink="http://www.w3.org/1999/xlink" x="0px" y="0px"
	 viewBox="0 0 512 512" style="enable-background:new 0 0 512 512;" xml:space="preserve">
<circle style="fill:#FFFFFF;" cx="256" cy="256" r="256"/>
<path style="fill:#25B6D2;" d="M256,0c-0.04,0-0.08,0-0.12,0c-0.008,0-0.024,0-0.032,0c-0.024,0-0.056,0-0.08,0
	c-0.016,0-0.024,0-0.04,0c-0.024,0-0.056,0-0.08,0c-0.008,0-0.032,0-0.04,0c-0.024,0-0.056,0-0.088,0c-0.016,0-0.016,0-0.032,0
	c-0.04,0-0.08,0-0.112,0c-0.008,0-0.016,0-0.024,0c-0.032,0-0.064,0-0.088,0c-0.008,0-0.032,0-0.04,0c-0.024,0-0.056,0-0.08,0
	c-0.016,0-0.024,0-0.04,0c-0.024,0-0.048,0-0.072,0c-0.008,0-0.04,0-0.048,0c-0.024,0-0.056,0-0.08,0c-0.008,0-0.032,0-0.04,0
	c-0.04,0-0.072,0-0.112,0c-0.016,0-0.024,0-0.04,0c-0.024,0-0.048,0-0.072,0c-0.016,0-0.032,0-0.048,0c-0.024,0-0.048,0-0.072,0
	c-0.016,0-0.032,0-0.048,0c-0.024,0-0.048,0-0.072,0c-0.016,0-0.024,0-0.04,0c-0.04,0-0.072,0-0.112,0c-0.008,0-0.016,0-0.032,0
	c-0.032,0-0.064,0-0.088,0c-0.016,0-0.032,0-0.048,0c-0.024,0-0.04,0-0.064,0c-0.016,0-0.04,0-0.056,0c-0.024,0-0.04,0-0.064,0
	c-0.016,0-0.04,0-0.056,0c-0.024,0-0.04,0-0.064,0c-0.016,0-0.032,0-0.048,0c-0.04,0-0.072,0-0.112,0c-0.016,0-0.024,0-0.04,0
	c-0.024,0-0.048,0-0.072,0c-0.016,0-0.04,0-0.056,0c-0.024,0-0.04,0-0.064,0c-0.016,0-0.04,0-0.056,0c-0.024,0-0.04,0-0.064,0
	s-0.032,0-0.056,0c-0.016,0-0.04,0-0.056,0c-0.032,0-0.064,0-0.104,0c-0.024,0-0.04,0-0.056,0c-0.024,0-0.04,0-0.064,0
	c-0.016,0-0.032,0-0.048,0s-0.048,0-0.064,0c-0.016,0-0.032,0-0.056,0c-0.016,0-0.04,0-0.056,0c-0.024,0-0.04,0-0.064,0
	c-0.016,0-0.04,0-0.056,0c-0.024,0-0.04,0-0.056,0c-0.032,0-0.08,0-0.112,0c-0.016,0-0.032,0-0.048,0c-0.024,0-0.04,0-0.064,0
	c-0.016,0-0.032,0-0.048,0s-0.048,0-0.064,0c-0.016,0-0.032,0-0.048,0c-0.024,0-0.04,0-0.064,0c-0.016,0-0.024,0-0.04,0
	c-0.088,0-0.16,0-0.248,0c-0.016,0-0.024,0-0.04,0c-0.024,0-0.048,0-0.072,0c-0.016,0-0.024,0-0.04,0c-0.016,0-0.056,0-0.072,0
	s-0.024,0-0.04,0c-0.024,0-0.048,0-0.072,0c-0.008,0-0.016,0-0.032,0c-0.064,0-0.112,0-0.168,0h-0.008c-0.032,0-0.056,0-0.08,0
	c-0.008,0-0.024,0-0.032,0c-0.024,0-0.048,0-0.072,0c-0.016,0-0.024,0-0.04,0c-0.024,0-0.048,0-0.072,0c-0.008,0-0.024,0-0.032,0
	c-0.088,0-0.168,0-0.256,0.008c-0.008,0-0.024,0-0.032,0c-0.024,0-0.048,0-0.08,0c-0.008,0-0.024,0-0.032,0c-0.024,0-0.056,0-0.08,0
	c-0.008,0-0.024,0-0.032,0c-0.024,0-0.056,0-0.08,0c-0.008,0-0.016,0-0.024,0c-0.088,0-0.184,0.008-0.272,0.008
	c-0.008,0-0.016,0-0.024,0c-0.024,0-0.056,0-0.08,0c-0.008,0-0.024,0-0.032,0c-0.024,0-0.056,0-0.08,0c-0.008,0-0.024,0-0.032,0
	c-0.024,0-0.056,0-0.08,0h-0.008c-0.072,0-0.128,0-0.192,0.008h-0.008c-0.024,0-0.056,0-0.08,0c-0.008,0-0.024,0-0.032,0
	c-0.024,0-0.048,0-0.08,0c-0.008,0-0.024,0-0.032,0c-0.024,0-0.056,0-0.08,0c-0.008,0-0.016,0-0.024,0
	c-0.096,0-0.192,0.008-0.28,0.008c-0.008,0-0.008,0-0.016,0c-0.024,0-0.056,0-0.08,0c-0.008,0-0.024,0-0.032,0
	c-0.032,0-0.048,0-0.08,0c-0.008,0-0.024,0-0.032,0c-0.024,0-0.056,0-0.08,0c0,0-0.008,0-0.016,0c-0.088,0-0.192,0.008-0.28,0.008
	c-0.008,0-0.016,0-0.016,0c-0.024,0-0.056,0-0.08,0c-0.008,0-0.016,0-0.024,0c-0.024,0-0.056,0-0.08,0h-0.016
	c-0.088,0-0.192,0.008-0.28,0.008c-0.008,0-0.016,0-0.016,0c-0.024,0-0.056,0-0.08,0c-0.008,0-0.024,0-0.032,0
	c-0.024,0-0.048,0-0.072,0c-0.008,0-0.024,0-0.032,0c-0.024,0-0.048,0-0.08,0c-0.008,0-0.016,0-0.024,0
	c-0.088,0-0.176,0.008-0.264,0.008c-0.008,0-0.024,0-0.032,0c-0.024,0-0.048,0-0.072,0c-0.016,0-0.024,0-0.04,0
	c-0.016,0-0.056,0-0.072,0s-0.032,0-0.048,0c-0.024,0-0.04,0-0.072,0c-0.016,0-0.024,0-0.04,0c-0.048,0-0.088,0-0.136,0.008
	c-0.008,0-0.024,0-0.032,0c-0.024,0-0.04,0-0.064,0c-0.016,0-0.032,0-0.048,0s-0.048,0-0.064,0c-0.016,0-0.032,0-0.048,0
	s-0.048,0-0.064,0c-0.016,0-0.032,0-0.056,0c-0.016,0-0.04,0-0.056,0c-0.032,0-0.072,0-0.104,0c-0.016,0-0.032,0-0.048,0
	c-0.024,0-0.048,0-0.064,0c-0.024,0-0.032,0-0.056,0s-0.04,0-0.064,0c-0.016,0-0.032,0-0.048,0c-0.024,0-0.04,0-0.064,0
	c-0.008,0-0.04,0-0.048,0c-0.024,0-0.056,0-0.08,0c-0.008,0-0.024,0-0.032,0c-0.04,0-0.072,0-0.112,0.008c-0.016,0-0.016,0-0.032,0
	c-0.024,0-0.056,0-0.08,0c-0.008,0-0.032,0-0.04,0c-0.024,0-0.056,0-0.08,0c-0.016,0-0.024,0-0.04,0c-0.024,0-0.056,0-0.08,0
	c-0.008,0-0.024,0-0.032,0c-0.08,0-0.16,0.008-0.232,0.008h-0.024c-0.032,0-0.064,0-0.096,0.008c-0.008,0-0.024,0-0.032,0
	c-0.032,0-0.064,0-0.096,0.008c-0.008,0-0.016,0-0.024,0c-0.12,0.008-0.24,0.008-0.36,0.016h-0.008c-0.04,0-0.08,0-0.112,0.008
	h-0.008c-0.04,0-0.08,0-0.12,0.008l0,0c-1.328,0.064-2.656,0.136-3.976,0.216l0.496,7.984C245.624,8.16,250.84,8,256,8V0L256,0
	L256,0z M224.08,1.968c-4.112,0.512-8.2,1.12-12.248,1.824h-0.008c-0.04,0.008-0.072,0.016-0.112,0.016c-0.008,0-0.008,0-0.016,0
	c-0.08,0.016-0.16,0.024-0.24,0.04h-0.008c-0.032,0.008-0.064,0.008-0.104,0.016c-0.008,0-0.024,0.008-0.032,0.008
	c-0.024,0.008-0.048,0.008-0.08,0.016c-0.008,0-0.032,0.008-0.04,0.008c-0.024,0.016-0.048,0.024-0.072,0.024
	c-0.016,0-0.024,0-0.04,0.008c-0.032,0.008-0.072,0.016-0.104,0.016c-0.016,0-0.04,0.008-0.056,0.008s-0.032,0.008-0.056,0.008
	c-0.016,0-0.048,0.008-0.064,0.008c-0.016,0-0.024,0.008-0.04,0.008c-0.024,0.016-0.04,0.016-0.064,0.024
	c-0.008,0-0.024,0.008-0.032,0.008c-0.12,0.024-0.24,0.04-0.368,0.064l0,0c-0.672,0.12-1.344,0.248-2.016,0.368l1.48,7.864
	c5.048-0.952,10.2-1.76,15.312-2.392L224.08,1.968L224.08,1.968z M192.656,7.896c-5.144,1.312-10.232,2.776-15.248,4.392
	c-0.008,0,0,0-0.008,0c-0.032,0.008-0.072,0.024-0.104,0.032c-0.008,0,0,0-0.008,0l2.456,7.616
	c4.896-1.576,9.904-3.024,14.888-4.296L192.656,7.896L192.656,7.896z M162.216,17.72c-2.256,0.888-4.488,1.808-6.712,2.752h-0.008
	c-0.04,0.016-0.072,0.032-0.112,0.048l0,0c-0.072,0.032-0.152,0.064-0.224,0.096c-0.008,0-0.008,0.008-0.016,0.008
	c-0.032,0.016-0.056,0.024-0.088,0.04c-0.008,0-0.016,0.008-0.024,0.008c-0.032,0.016-0.064,0.024-0.096,0.04
	c-0.008,0-0.008,0-0.016,0.008c-0.032,0.016-0.072,0.032-0.104,0.048c-0.016,0.008-0.016,0.008-0.032,0.016
	c-0.024,0.008-0.048,0.016-0.072,0.032c-0.016,0.008-0.032,0.016-0.04,0.016c-0.016,0.008-0.04,0.016-0.056,0.024
	s-0.032,0.016-0.048,0.024s-0.04,0.016-0.056,0.024c-0.04,0.016-0.064,0.024-0.096,0.04c-0.016,0.008-0.024,0.016-0.04,0.016
	c-0.024,0.008-0.04,0.016-0.064,0.024c-0.016,0.008-0.024,0.008-0.04,0.016c-0.024,0.008-0.04,0.016-0.064,0.024
	c-0.008,0.008-0.024,0.008-0.032,0.016c-0.08,0.032-0.152,0.064-0.232,0.104l-0.016,0.008c-0.032,0.016-0.048,0.024-0.08,0.032
	L153.84,21.2c-0.12,0.048-0.232,0.096-0.344,0.152l0,0c-2,0.872-3.992,1.776-5.96,2.696l3.392,7.248
	c4.656-2.184,9.448-4.248,14.232-6.128L162.216,17.72L162.216,17.72z M133.264,31.288c-3.128,1.712-6.216,3.488-9.264,5.32
	c0,0,0,0-0.008,0c-0.112,0.064-0.208,0.128-0.32,0.192l-0.008,0.008c-0.024,0.016-0.048,0.032-0.072,0.048l-0.008,0.008
	c-0.08,0.048-0.152,0.096-0.232,0.136c-0.008,0.008-0.016,0.008-0.024,0.016c-0.024,0.016-0.04,0.024-0.064,0.04
	c-0.008,0.008-0.016,0.008-0.024,0.016c-0.072,0.04-0.144,0.088-0.216,0.128c-0.008,0.008-0.016,0.008-0.016,0.008
	c-0.024,0.016-0.04,0.024-0.064,0.04c-0.008,0.008-0.016,0.008-0.032,0.016c-0.024,0.016-0.048,0.024-0.064,0.04
	c0,0-0.008,0.008-0.016,0.008c-0.04,0.024-0.096,0.056-0.136,0.08c-0.008,0-0.008,0.008-0.016,0.008
	c-0.024,0.016-0.04,0.024-0.056,0.04c-0.008,0.008-0.024,0.016-0.04,0.024c-0.024,0.016-0.04,0.024-0.056,0.032
	c-0.008,0.008-0.024,0.016-0.032,0.024c-0.064,0.04-0.128,0.08-0.192,0.12c-0.016,0.008-0.032,0.016-0.048,0.024
	s-0.04,0.024-0.048,0.032c-0.016,0.008-0.032,0.016-0.04,0.024c-0.024,0.016-0.032,0.016-0.048,0.032
	c-0.016,0.008-0.032,0.024-0.048,0.032c-0.024,0.016-0.048,0.032-0.08,0.048c-0.016,0.008-0.032,0.024-0.056,0.032
	c-0.016,0.008-0.032,0.016-0.048,0.024s-0.032,0.024-0.048,0.032c-0.016,0.008-0.032,0.024-0.048,0.032
	c-0.016,0.008-0.032,0.024-0.056,0.032c-0.016,0.008-0.04,0.024-0.048,0.032c-0.024,0.016-0.056,0.032-0.08,0.048
	c-0.016,0.008-0.032,0.016-0.048,0.024s-0.032,0.024-0.048,0.032c-0.016,0.008-0.032,0.016-0.048,0.024s-0.032,0.024-0.056,0.032
	c-0.016,0.008-0.032,0.016-0.04,0.024c-0.032,0.016-0.056,0.032-0.088,0.056c-0.016,0.008-0.032,0.016-0.04,0.024
	c-0.016,0.008-0.032,0.024-0.048,0.032c-0.016,0.008-0.032,0.024-0.048,0.032c-0.016,0.008-0.032,0.024-0.048,0.032
	c-0.016,0.008-0.032,0.016-0.048,0.032c-0.024,0.016-0.04,0.024-0.064,0.04c-0.016,0.008-0.032,0.024-0.048,0.032
	c-0.024,0.016-0.048,0.032-0.072,0.048s-0.024,0.016-0.04,0.024s-0.032,0.024-0.056,0.032c-0.016,0.008-0.032,0.016-0.048,0.024
	c-0.024,0.016-0.04,0.024-0.064,0.04c-0.016,0.008-0.016,0.008-0.032,0.016c-0.032,0.016-0.064,0.04-0.088,0.056
	c-0.016,0.008-0.024,0.016-0.04,0.024c-0.016,0.016-0.04,0.024-0.056,0.04c-0.016,0.008-0.024,0.016-0.04,0.024
	s-0.032,0.024-0.056,0.032c-0.024,0.016-0.024,0.016-0.04,0.024c-0.024,0.016-0.04,0.024-0.064,0.04
	c-0.024,0.016-0.04,0.024-0.064,0.04c-0.016,0.008-0.04,0.024-0.056,0.032c-0.016,0.008-0.032,0.016-0.04,0.024
	c-0.016,0.008-0.032,0.024-0.056,0.032c-0.008,0.032-0.024,0.04-0.04,0.048c-0.016,0.008-0.04,0.024-0.056,0.032
	c-0.024,0.016-0.048,0.032-0.072,0.048c-0.016,0.008-0.04,0.024-0.056,0.032c-0.024,0.016-0.032,0.016-0.048,0.032
	c-0.016,0.008-0.024,0.016-0.04,0.024s-0.04,0.024-0.048,0.032c-0.016,0.008-0.032,0.016-0.04,0.024
	c-0.024,0.016-0.032,0.024-0.056,0.032c-0.008,0.008-0.016,0.008-0.024,0.016c-0.024,0.016-0.048,0.032-0.064,0.04l4.272,6.76
	c4.352-2.752,8.848-5.392,13.352-7.864L133.264,31.288L133.264,31.288z M106.224,48.368c-3.296,2.384-6.528,4.832-9.704,7.368
	l-0.008,0.008c-0.024,0.016-0.048,0.032-0.072,0.056l0,0c-0.072,0.056-0.144,0.112-0.216,0.168
	c-0.008,0.008-0.016,0.008-0.024,0.016c-0.008,0.016-0.032,0.032-0.048,0.048c-0.008,0.008-0.016,0.016-0.024,0.024
	c-0.04,0.024-0.088,0.056-0.128,0.088l-0.016,0.008c-0.016,0.016-0.032,0.024-0.056,0.04c-0.008,0.008-0.024,0.016-0.032,0.024
	c-0.016,0.008-0.04,0.032-0.048,0.04c-0.016,0.008-0.024,0.024-0.04,0.032c-0.016,0.016-0.024,0.024-0.048,0.04
	c-0.024,0.024-0.056,0.04-0.08,0.064c-0.016,0.008-0.016,0.016-0.032,0.024c-0.016,0.016-0.04,0.032-0.056,0.048
	c-0.016,0.008-0.024,0.016-0.032,0.024c-0.016,0.016-0.04,0.032-0.056,0.048c-0.008,0.008-0.024,0.024-0.032,0.024
	c-0.024,0.024-0.056,0.04-0.08,0.064l-0.008,0.008c-0.032,0.024-0.056,0.048-0.088,0.072c-0.008,0.008-0.016,0.016-0.024,0.016
	c-0.024,0.016-0.048,0.04-0.072,0.056c0.008,0.008,0,0.016-0.008,0.024c-0.024,0.024-0.056,0.04-0.08,0.064
	c-0.008,0.008,0,0-0.008,0.008c-0.032,0.024-0.064,0.048-0.096,0.08l0,0c-0.032,0.024-0.064,0.048-0.088,0.072l-0.008,0.008
	c-0.448,0.368-0.904,0.736-1.352,1.104l5.08,6.184c3.976-3.264,8.104-6.456,12.272-9.464L106.224,48.368L106.224,48.368z
	 M81.52,68.672c-3.744,3.48-7.368,7.064-10.888,10.768l-0.008,0.008c-0.024,0.024-0.04,0.04-0.064,0.064
	c0,0.008-0.008,0.008-0.008,0.016c-0.064,0.056-0.12,0.12-0.184,0.184c0,0.008-0.008,0.008-0.016,0.016
	c-0.016,0.016-0.032,0.04-0.048,0.056c-0.008,0.008-0.016,0.016-0.024,0.024c-0.016,0.016-0.032,0.032-0.048,0.048
	c-0.008,0.008-0.016,0.016-0.024,0.024c-0.016,0.016-0.032,0.04-0.048,0.056l5.808,5.504c3.536-3.736,7.24-7.408,11.008-10.912
	L81.52,68.672L81.52,68.672z M59.52,91.88c-0.776,0.928-1.544,1.856-2.304,2.792l0,0c-0.08,0.096-0.152,0.192-0.232,0.288
	c0,0,0,0-0.008,0.008c-0.024,0.032-0.048,0.056-0.072,0.088c-0.008,0.008,0,0-0.008,0.008c-0.048,0.064-0.104,0.128-0.152,0.192
	v0.008c-0.024,0.032-0.048,0.056-0.072,0.088c-0.008,0.008-0.008,0.008-0.016,0.016c-0.072,0.096-0.152,0.184-0.224,0.28
	c-0.008,0.008-0.008,0.008-0.008,0.016c-0.024,0.024-0.04,0.056-0.064,0.08c-0.008,0.008-0.008,0.008-0.016,0.016
	c-0.048,0.064-0.096,0.12-0.144,0.184c-0.008,0.008-0.008,0.008-0.016,0.016c-0.024,0.024-0.04,0.048-0.064,0.08
	c0,0-0.008,0.008-0.016,0.016c-0.048,0.064-0.096,0.12-0.144,0.184l-0.008,0.016c-0.024,0.024-0.04,0.048-0.056,0.072
	c-0.008,0.016-0.008,0.008-0.016,0.024c-0.024,0.024-0.04,0.056-0.064,0.08l-0.008,0.008c-0.024,0.032-0.048,0.064-0.072,0.096
	c-0.008,0.008-0.008,0.008-0.008,0.016c-0.024,0.024-0.04,0.048-0.064,0.08c-0.008,0.008-0.008,0.016-0.008,0.016
	c-0.024,0.032-0.048,0.056-0.064,0.08c-0.008,0.008-0.008,0.008-0.008,0.016c-0.048,0.064-0.096,0.12-0.144,0.184
	c0,0-0.016,0.016-0.016,0.024c-0.016,0.024-0.04,0.048-0.056,0.072c-0.008,0.008-0.008,0.016-0.016,0.016
	c-0.024,0.032-0.048,0.056-0.072,0.088l0,0c-0.024,0.032-0.048,0.064-0.072,0.096c-0.008,0.008-0.008,0.008-0.016,0.016
	c-0.016,0.024-0.04,0.048-0.056,0.072c-0.008,0.008-0.016,0.016-0.016,0.024c-0.024,0.024-0.04,0.056-0.064,0.08
	c-0.008,0.008,0,0-0.008,0.008c-0.024,0.032-0.048,0.064-0.072,0.096c-0.008,0.008,0,0-0.008,0.008
	c-0.024,0.024-0.04,0.056-0.064,0.08c-0.008,0.008-0.008,0.008-0.016,0.016c-0.024,0.024-0.04,0.056-0.064,0.08
	c-0.008,0.008-0.008,0.008-0.008,0.008c-0.056,0.072-0.104,0.128-0.152,0.192c0,0-0.008,0.008-0.008,0.016
	c-0.024,0.024-0.04,0.056-0.064,0.08c-0.032,0-0.032,0-0.032,0c-0.048,0.064-0.096,0.128-0.144,0.184L54.4,98.2
	c-0.024,0.024-0.04,0.056-0.064,0.08c-0.008,0.008-0.008,0.008-0.008,0.008c-0.056,0.072-0.104,0.136-0.152,0.192l0,0
	c-0.024,0.032-0.048,0.064-0.072,0.096l-0.008,0.008c-0.024,0.032-0.048,0.064-0.072,0.088v0.008
	c-0.048,0.064-0.096,0.128-0.152,0.192c-0.008,0.008,0,0.008-0.008,0.008c-0.024,0.032-0.048,0.056-0.072,0.088
	c-0.008,0.008,0,0-0.008,0.008c-0.072,0.096-0.152,0.192-0.224,0.288v0.008c-0.08,0.096-0.152,0.192-0.224,0.296l0,0
	c-1.248,1.616-2.48,3.248-3.688,4.888l6.448,4.744c3.048-4.144,6.264-8.248,9.568-12.192L59.52,91.88L59.52,91.88z M40.568,117.648
	l-0.008,0.016c-0.016,0.024-0.032,0.04-0.04,0.064c-0.008,0.008-0.016,0.024-0.024,0.032c-0.016,0.024-0.032,0.056-0.056,0.08
	c-0.008,0.008,0,0.008-0.008,0.008c-0.024,0.032-0.04,0.064-0.064,0.096c-0.008,0.008-0.016,0.024-0.016,0.024
	c-0.016,0.024-0.032,0.048-0.048,0.072c-0.008,0.016-0.008,0.016-0.024,0.032c-0.016,0.024-0.032,0.048-0.048,0.072
	c0.008,0.016,0.008,0.016,0,0.032c-0.016,0.032-0.04,0.064-0.056,0.088c-0.008,0.016-0.008,0.016-0.016,0.032
	c-0.016,0.024-0.032,0.048-0.04,0.064c-0.008,0.016-0.016,0.024-0.024,0.032c-0.016,0.016-0.024,0.04-0.04,0.056
	c-0.008,0.016-0.016,0.024-0.024,0.04c-0.016,0.032-0.04,0.056-0.056,0.088c0,0-0.016,0.024-0.016,0.032
	c-0.016,0.024-0.032,0.048-0.048,0.072c-0.008,0.016-0.016,0.024-0.024,0.04c-0.016,0.016-0.024,0.04-0.04,0.056
	c-0.008,0.016-0.016,0.024-0.024,0.04c-0.016,0.024-0.032,0.048-0.04,0.064c-0.008,0.008-0.016,0.024-0.016,0.032
	c-0.016,0.032-0.04,0.064-0.056,0.088c-0.008,0.016-0.016,0.024-0.024,0.032c-0.016,0.016-0.024,0.04-0.04,0.056
	c-0.008,0.016-0.016,0.024-0.024,0.04c-0.016,0.024-0.024,0.04-0.04,0.056c-0.008,0.016-0.016,0.024-0.024,0.032
	c-0.016,0.032-0.04,0.064-0.056,0.088c-0.008,0.016-0.008,0.016-0.016,0.024c-0.016,0.024-0.032,0.048-0.04,0.072
	c-0.008,0.016-0.016,0.024-0.024,0.032c-0.016,0.024-0.024,0.04-0.04,0.064c-0.008,0.008-0.016,0.024-0.024,0.032
	c-0.016,0.032-0.032,0.056-0.056,0.088l-0.008,0.016c-0.016,0.032-0.04,0.056-0.056,0.088c-0.008,0.008-0.016,0.024-0.016,0.024
	c-0.024,0.048-0.04,0.072-0.048,0.096c-0.008,0.008-0.016,0.024-0.016,0.032c-0.016,0.024-0.032,0.056-0.048,0.08
	c-0.008,0.008-0.008,0.008-0.008,0.008c-0.032,0.04-0.048,0.072-0.072,0.104c-0.008,0.008-0.008,0.016-0.016,0.024
	c-0.016,0.024-0.032,0.048-0.048,0.072c-0.008,0.016-0.016,0.016-0.024,0.032c-0.016,0.024-0.032,0.048-0.048,0.072
	c0,0-0.008,0.016-0.016,0.024c-0.024,0.032-0.04,0.064-0.064,0.096v0.008c-0.016,0.032-0.04,0.064-0.056,0.096
	c-0.008,0.008-0.008,0.016-0.016,0.024c-0.016,0.024-0.032,0.048-0.048,0.08l-0.016,0.024c-0.04,0.064-0.08,0.128-0.12,0.2
	c-0.008,0.008-0.008,0.016-0.016,0.016c-0.016,0.024-0.032,0.056-0.048,0.08c-0.008,0.008-0.008,0.016-0.008,0.016
	c-0.024,0.032-0.04,0.064-0.056,0.088c-0.008,0.008-0.008,0.008-0.008,0.016c-0.024,0.032-0.04,0.064-0.064,0.104
	c-0.008,0.008,0-0.008,0,0c-0.024,0.032-0.04,0.064-0.064,0.096c-0.008,0.008-0.008,0.008-0.008,0.016
	c-0.016,0.032-0.04,0.056-0.056,0.088c-0.008,0.008,0,0.008-0.008,0.008c-0.04,0.072-0.088,0.136-0.128,0.208l-0.008,0.008
	c-0.016,0.032-0.04,0.064-0.056,0.096c-0.008,0.008,0,0-0.008,0.008c-0.064,0.104-0.128,0.208-0.192,0.312l0,0
	c-1.264,2.056-2.504,4.128-3.712,6.224l0,0c-0.064,0.104-0.12,0.216-0.184,0.32l-0.008,0.008c-0.016,0.032-0.04,0.064-0.056,0.104
	l0,0c-0.04,0.072-0.08,0.136-0.12,0.208c0,0.008-0.008,0.016-0.016,0.024c-0.016,0.024-0.032,0.048-0.048,0.08
	c0,0.008-0.016,0.024-0.016,0.032c-0.016,0.024-0.032,0.056-0.048,0.08c0,0.008-0.008,0.008-0.008,0.016
	c-0.016,0.032-0.032,0.064-0.056,0.096c-0.008,0.016-0.016,0.024-0.024,0.04c-0.008,0.016-0.024,0.04-0.032,0.056
	c-0.008,0.016-0.016,0.032-0.024,0.048s-0.016,0.032-0.024,0.048c-0.008,0.024-0.016,0.032-0.032,0.056l0,0
	c-0.024,0.048-0.056,0.096-0.088,0.152c-0.008,0.008-0.008,0.016-0.016,0.024c-0.016,0.032-0.024,0.04-0.04,0.072
	c0,0.008-0.008,0.016-0.008,0.016c-0.056,0.104-0.128,0.216-0.184,0.328l0,0c-0.256,0.456-0.512,0.904-0.768,1.36l6.984,3.904
	c2.504-4.488,5.192-8.96,7.976-13.288L40.568,117.648L40.568,117.648z M24.976,145.568c-0.448,0.936-0.896,1.88-1.328,2.824l0,0
	c-0.016,0.04-0.032,0.072-0.048,0.112l0,0c-0.032,0.072-0.064,0.144-0.104,0.216c0,0.008-0.008,0.016-0.016,0.024
	c-0.008,0.024-0.024,0.048-0.032,0.08c-0.008,0.016-0.008,0.016-0.016,0.032c-0.008,0.024-0.024,0.048-0.032,0.072
	c-0.008,0.016-0.008,0.024-0.016,0.04c-0.016,0.032-0.032,0.064-0.04,0.096c-0.008,0.016-0.016,0.04-0.024,0.048
	c-0.008,0.016-0.016,0.032-0.024,0.048s-0.024,0.04-0.024,0.056c-0.008,0.016-0.016,0.024-0.016,0.04
	c-0.008,0.024-0.016,0.04-0.032,0.064c0,0.008-0.008,0.016-0.008,0.024c-0.04,0.08-0.072,0.152-0.112,0.24
	c0,0.008-0.008,0.008-0.008,0.016c-1.6,3.496-3.12,7.032-4.568,10.616l7.416,2.984c1.928-4.768,4.032-9.536,6.248-14.176
	L24.976,145.568L24.976,145.568z M13.008,175.216c-0.152,0.456-0.304,0.912-0.448,1.368v0.008c-0.008,0.032-0.016,0.056-0.024,0.088
	c0,0.008,0,0.008-0.008,0.016c-0.04,0.12-0.08,0.232-0.112,0.352c0,0.008-0.008,0.016-0.008,0.024
	c-0.008,0.032-0.016,0.048-0.024,0.08c0,0,0,0.016-0.008,0.016c-0.024,0.08-0.056,0.168-0.08,0.248c0,0.008-0.008,0.016-0.008,0.024
	c-0.008,0.024-0.016,0.048-0.024,0.072c0,0.008-0.008,0.024-0.008,0.032c-0.008,0.024-0.016,0.04-0.024,0.064
	c-0.008,0.016-0.008,0.024-0.016,0.04c-0.024,0.08-0.048,0.152-0.072,0.224c0,0.008-0.008,0.024-0.008,0.032
	c-0.008,0.024-0.016,0.04-0.024,0.064c-0.008,0.016-0.008,0.024-0.016,0.04c-0.008,0.024-0.016,0.04-0.024,0.064
	c0,0.016-0.008,0.024-0.008,0.04c-0.016,0.04-0.024,0.08-0.04,0.12c-0.008,0.016-0.008,0.032-0.016,0.04
	C12,178.304,12,178.32,11.992,178.344c-0.008,0.016-0.008,0.032-0.016,0.048c-0.008,0.016-0.016,0.04-0.016,0.056
	c-0.008,0.016-0.008,0.032-0.016,0.048c-0.008,0.024-0.008,0.032-0.016,0.056c-0.008,0.016-0.008,0.032-0.016,0.056
	c-0.008,0.032-0.016,0.064-0.032,0.088c-0.008,0.016-0.008,0.04-0.016,0.056c-0.008,0.024-0.008,0.032-0.016,0.056
	c-0.008,0.016-0.008,0.032-0.016,0.048c-0.008,0.016-0.016,0.04-0.016,0.056c-0.008,0.016-0.008,0.032-0.016,0.048
	c-0.008,0.032-0.016,0.048-0.024,0.08c-0.008,0.024-0.016,0.048-0.024,0.072c-0.008,0.016-0.008,0.032-0.016,0.048
	c-0.008,0.016-0.008,0.032-0.016,0.056c-0.008,0.016-0.016,0.04-0.016,0.056c-0.008,0.016-0.008,0.032-0.016,0.048
	c-0.008,0.024-0.008,0.032-0.016,0.056c-0.008,0.016-0.008,0.032-0.016,0.048c-0.008,0.024-0.016,0.064-0.024,0.088
	s-0.016,0.048-0.024,0.064c-0.008,0.016-0.008,0.04-0.016,0.048c-0.008,0.016-0.008,0.04-0.016,0.056
	c-0.008,0.016-0.008,0.04-0.016,0.056c-0.008,0.016-0.008,0.04-0.016,0.056c-0.024,0.048-0.024,0.048-0.032,0.072
	s-0.016,0.048-0.024,0.064c-0.008,0.032-0.016,0.048-0.024,0.08c-0.008,0.024-0.016,0.04-0.016,0.064
	c-0.008,0.024-0.008,0.032-0.016,0.048c-0.008,0.016-0.008,0.04-0.016,0.056c-0.008,0.016-0.008,0.04-0.016,0.056
	c-0.008,0.016-0.008,0.032-0.016,0.056c-0.008,0.024-0.008,0.032-0.016,0.056c-0.008,0.016-0.008,0.032-0.016,0.04
	c-0.008,0.032-0.024,0.08-0.032,0.112c-0.008,0.016-0.008,0.032-0.016,0.048c-0.008,0.024-0.008,0.032-0.016,0.056
	c-0.008,0.016-0.008,0.032-0.016,0.048c-0.008,0.024-0.008,0.04-0.016,0.064c-0.008,0.016-0.008,0.032-0.016,0.048
	c-0.024,0.08-0.04,0.136-0.064,0.216c-0.008,0.016-0.008,0.032-0.016,0.04c-0.008,0.016-0.016,0.048-0.016,0.064
	c-0.008,0.016-0.008,0.032-0.016,0.04c-0.008,0.024-0.008,0.04-0.016,0.064c-0.008,0.016-0.008,0.032-0.016,0.048
	c-0.008,0.032-0.024,0.072-0.032,0.104c-0.008,0.016-0.008,0.032-0.016,0.056c-0.008,0.024-0.008,0.032-0.016,0.056
	c-0.008,0.016-0.008,0.032-0.016,0.048c-0.008,0.016-0.016,0.04-0.016,0.056c-0.008,0.016-0.008,0.032-0.016,0.048
	c-0.008,0.024-0.008,0.04-0.016,0.064c-0.008,0.016-0.008,0.032-0.016,0.048c-0.008,0.032-0.024,0.08-0.032,0.112
	c-0.008,0.016-0.008,0.032-0.016,0.04c-0.008,0.024-0.016,0.04-0.016,0.064c-0.008,0.016-0.008,0.032-0.016,0.04
	c-0.008,0.016-0.016,0.048-0.016,0.064c-0.008,0.016-0.008,0.032-0.016,0.048c-0.008,0.024-0.008,0.04-0.016,0.064
	c-0.008,0.016-0.008,0.032-0.016,0.048c-0.008,0.04-0.016,0.064-0.032,0.104c-0.008,0.016-0.008,0.032-0.016,0.04
	c-0.008,0.024-0.016,0.04-0.016,0.064c-0.008,0.016-0.008,0.032-0.016,0.04c-0.008,0.024-0.008,0.04-0.016,0.064
	c-0.008,0.016-0.008,0.032-0.016,0.048c-0.016,0.048-0.024,0.08-0.04,0.128c0,0.008-0.008,0.016-0.008,0.024
	c-0.008,0.024-0.016,0.04-0.016,0.064c0,0.016-0.008,0.024-0.008,0.04c-0.008,0.024-0.016,0.04-0.016,0.064
	c-0.008,0.016-0.008,0.032-0.016,0.048c-0.008,0.024-0.008,0.04-0.016,0.064c0,0.016-0.008,0.024-0.008,0.04
	c-0.016,0.048-0.024,0.08-0.04,0.128c0,0.008-0.008,0.024-0.008,0.032c-0.008,0.024-0.008,0.04-0.016,0.064
	c-0.024,0.008-0.024,0.016-0.032,0.032c-0.008,0.016-0.016,0.048-0.016,0.064c-0.008,0.016-0.008,0.024-0.008,0.04
	c-0.008,0.024-0.016,0.04-0.016,0.064c0,0.008-0.008,0.024-0.008,0.032c-0.016,0.048-0.024,0.08-0.04,0.128
	c-0.008,0.016-0.008,0.032-0.016,0.04c-0.008,0.024-0.008,0.04-0.016,0.064c0,0.016-0.008,0.024-0.008,0.04
	c-0.008,0.024-0.016,0.04-0.016,0.064c0,0.016-0.008,0.024-0.008,0.04c-0.024,0.08-0.04,0.144-0.064,0.224
	c0,0.016-0.008,0.024-0.008,0.04c-0.008,0.024-0.016,0.04-0.016,0.064c-0.008,0.016-0.008,0.032-0.016,0.04
	c-0.008,0.024-0.008,0.04-0.016,0.064c-0.008,0.016-0.008,0.032-0.016,0.048c-0.008,0.024-0.016,0.056-0.024,0.08
	s-0.016,0.048-0.024,0.072s-0.008,0.032-0.016,0.056c-0.008,0.016-0.008,0.032-0.016,0.048c-0.008,0.016-0.016,0.04-0.016,0.056
	c-0.008,0.016-0.008,0.032-0.016,0.048c-0.008,0.024-0.008,0.032-0.016,0.056c-0.008,0.024-0.016,0.048-0.016,0.064
	c-0.008,0.024-0.016,0.048-0.024,0.072S10,184.936,10,184.952c-0.008,0.024-0.008,0.024-0.016,0.048
	c-0.008,0.024-0.008,0.04-0.016,0.064c-0.008,0.016-0.008,0.032-0.016,0.048c-0.008,0.024-0.016,0.04-0.016,0.064
	c-0.008,0.016-0.008,0.032-0.016,0.048c-0.008,0.032-0.016,0.072-0.032,0.104c0,0.008-0.008,0.024-0.008,0.032
	c-0.008,0.024-0.016,0.048-0.024,0.08c-0.008,0.016-0.008,0.024-0.016,0.04c-0.008,0.024-0.016,0.048-0.024,0.072
	c0,0.008-0.008,0.032-0.008,0.04c-0.008,0.024-0.016,0.056-0.024,0.08c0,0.008-0.008,0.016-0.008,0.024
	c-0.008,0.04-0.024,0.072-0.032,0.112c0,0.008-0.008,0.016-0.008,0.024c-0.008,0.032-0.016,0.064-0.024,0.088
	c0,0.008-0.008,0.024-0.008,0.032c-0.008,0.032-0.016,0.056-0.024,0.088c0,0.008-0.008,0.016-0.008,0.024
	c-0.008,0.04-0.024,0.072-0.032,0.112l0,0c-0.008,0.04-0.024,0.08-0.032,0.12L9.6,186.312c-0.008,0.032-0.016,0.064-0.024,0.096
	c-0.008,0.016,0,0.008-0.008,0.024c-0.008,0.032-0.016,0.064-0.032,0.096v0.016c-0.024,0.08-0.04,0.152-0.064,0.232
	c0,0.008,0,0,0,0.008c-0.008,0.04-0.024,0.072-0.032,0.112v0.008c-0.336,1.208-0.664,2.416-0.984,3.624l7.736,2.04
	c1.312-4.976,2.8-9.968,4.416-14.848L13.008,175.216L13.008,175.216z M4.856,206.144c-1.024,5.208-1.896,10.464-2.608,15.784
	l7.928,1.056c0.68-5.104,1.528-10.248,2.52-15.288L4.856,206.144L4.856,206.144z M0.632,237.84c-0.296,4.2-0.488,8.432-0.576,12.68
	l0,0c0,0.024,0,0.064,0,0.088c0,0.008,0,0.016,0,0.024c0,0.032,0,0.048,0,0.08c0,0.008,0,0.016,0,0.024c0,0.024,0,0.056,0,0.08
	c0,0.008,0,0.016,0,0.016c0,0.04,0,0.104,0,0.144c0,0.016,0,0.032,0,0.048s0,0.04,0,0.056s0,0.04,0,0.056s0,0.04,0,0.056
	c0,0.024,0,0.04,0,0.064c0,0.016,0,0.032,0,0.048c0,0.024,0,0.056,0,0.08c0,0.016,0,0.016,0,0.032c0,0.04,0,0.08,0,0.12
	c0,0.008,0,0,0,0.008c0,0.04,0,0.072,0,0.112c0,0.008,0,0.016,0,0.024c0,0.032,0,0.064,0,0.096v0.024c0,0.04,0,0.072,0,0.112l0,0
	c-0.008,0.624-0.016,1.256-0.024,1.888l8,0.064c0.04-5.16,0.248-10.368,0.608-15.488L0.632,237.84L0.632,237.84z M8.352,269.4
	l-7.992,0.424c0.048,0.912,0.104,1.808,0.16,2.712v0.008c0,0.032,0,0.056,0.008,0.088c0,0.008,0,0.008,0,0.008
	c0,0.04,0,0.064,0.008,0.096c0,0,0,0,0,0.008c0.008,0.096,0.016,0.192,0.016,0.288c0,0.008,0,0.016,0,0.016
	c0,0.024,0,0.056,0.008,0.08c0,0.008,0,0.024,0,0.032c0,0.024,0,0.048,0.008,0.072c0,0.016,0,0.024,0,0.04
	c0,0.024,0,0.048,0.008,0.072v0.008c0.008,0.056,0.008,0.096,0.008,0.16c0,0.016,0,0.024,0,0.04c0,0.024,0,0.04,0.008,0.064
	c0,0.016,0,0.032,0,0.048s0,0.048,0.008,0.064c0,0.016,0,0.032,0,0.048c0,0.024,0,0.04,0.008,0.064c0,0.016,0,0.04,0.008,0.056
	c0,0.016,0,0.04,0.008,0.064c0,0.032,0.008,0.064,0.008,0.104c0,0.016,0,0.024,0,0.048c0,0.024,0,0.048,0.008,0.072
	c0,0.016,0,0.032,0,0.048c0,0.024,0,0.04,0.008,0.064c0,0.016,0,0.032,0,0.048c0,0.024,0,0.048,0.008,0.08c0,0.016,0,0.016,0,0.032
	c0,0.04,0.008,0.08,0.008,0.112c0,0.008,0,0.016,0,0.024c0,0.032,0.008,0.064,0.008,0.096c0,0.008,0,0.032,0,0.04
	c0,0.024,0,0.056,0.008,0.08c0,0.016,0,0.016,0,0.04c0,0.032,0.008,0.064,0.008,0.088c0,0.008,0,0.016,0,0.024
	c0.008,0.08,0.008,0.16,0.016,0.24v0.016c0,0.032,0.008,0.064,0.008,0.096c0,0.008,0,0.016,0,0.024c0,0.032,0.008,0.064,0.008,0.096
	c0,0.008,0,0.008,0,0.016c0.008,0.12,0.016,0.24,0.024,0.36c0,0.008,0,0.008,0,0.016c0,0.04,0.008,0.072,0.008,0.104
	c0,0.008,0,0,0,0.016c0.008,0.12,0.016,0.248,0.032,0.368l0,0c0,0.04,0.008,0.08,0.008,0.12v0.008
	c0.016,0.168,0.024,0.328,0.04,0.496v0.008c0,0.04,0.008,0.08,0.008,0.12v0.008c0.008,0.12,0.024,0.248,0.032,0.368v0.008
	c0,0.04,0.008,0.08,0.008,0.12v0.008c0.008,0.12,0.024,0.248,0.032,0.368l0,0c0,0.04,0.008,0.08,0.008,0.12v0.008
	c0,0.04,0.008,0.08,0.008,0.12l0,0c0.008,0.12,0.024,0.248,0.032,0.368c0,0.008,0,0,0,0.008c0,0.04,0.008,0.072,0.008,0.112
	c0,0.008,0,0,0,0.008c0.008,0.12,0.024,0.24,0.032,0.368c0,0.008,0,0.008,0,0.016c0,0.032,0.008,0.072,0.008,0.104
	c0,0.008,0,0.008,0,0.016c0,0.04,0.008,0.072,0.008,0.112v0.008c0.008,0.08,0.016,0.16,0.024,0.24v0.016
	c0,0.032,0.008,0.064,0.008,0.104c0,0.008,0,0.016,0,0.024c0,0.032,0.008,0.064,0.008,0.096c0,0.008,0,0.016,0,0.024
	c0.008,0.08,0.016,0.16,0.024,0.232c0,0.008,0,0.008,0,0.016c0,0.032,0.008,0.064,0.008,0.096c0,0.008,0,0.024,0,0.032
	c0,0.024,0.008,0.056,0.008,0.08c0,0.008,0,0.032,0,0.04c0,0.032,0.008,0.064,0.008,0.088c0,0.008,0,0.016,0,0.024
	c0,0.04,0.008,0.08,0.008,0.12c0,0.008,0,0.008,0,0.016c0,0.032,0.008,0.064,0.008,0.096c0,0.008,0,0.032,0,0.04
	c0,0.024,0.008,0.048,0.008,0.072c0,0.016,0,0.032,0.008,0.048c0,0.024,0.008,0.048,0.008,0.072c0,0.016,0,0.024,0.008,0.04
	c0,0.024,0.008,0.056,0.008,0.08c0,0.016,0.008,0.048,0.008,0.064c0,0.024,0.008,0.048,0.008,0.072c0,0.016,0,0.04,0.008,0.056
	c0,0.016,0,0.04,0.008,0.056c0,0.016,0.008,0.04,0.008,0.056s0,0.04,0.008,0.056c0,0.024,0,0.032,0.008,0.056
	c0,0.016,0,0.032,0.008,0.048c0.008,0.072,0.016,0.16,0.024,0.24c0,0.008,0,0.024,0,0.032c0,0.024,0.008,0.048,0.008,0.072
	c0,0.008,0,0.024,0,0.032c0,0.024,0.008,0.056,0.008,0.08c0,0.008,0,0.016,0,0.024c0.016,0.128,0.024,0.248,0.04,0.376
	c0,0.008,0,0.008,0,0.016c0,0.032,0.008,0.056,0.008,0.096v0.008c0.112,1.104,0.232,2.192,0.36,3.288l7.944-0.92
	C9.072,279.744,8.632,274.544,8.352,269.4L8.352,269.4z M11.92,300.176l-7.872,1.416c0.312,1.744,0.648,3.48,0.992,5.216l0,0
	c0.024,0.128,0.048,0.248,0.08,0.376v0.016c0.008,0.032,0.008,0.048,0.016,0.088c0,0,0,0.008,0,0.016
	c0.016,0.088,0.032,0.168,0.056,0.256c0,0.008,0.008,0.024,0.008,0.032c0.008,0.024,0.008,0.048,0.016,0.072
	c0,0.016,0.008,0.024,0.008,0.04c0.008,0.024,0.008,0.04,0.016,0.064c0,0.016,0.008,0.024,0.008,0.04
	c0.008,0.024,0.008,0.04,0.016,0.064c0,0.008,0.008,0.024,0.008,0.032c0.008,0.04,0.016,0.08,0.024,0.12
	c0,0.016,0.008,0.032,0.008,0.056c0,0.016,0.008,0.04,0.008,0.056s0.008,0.04,0.008,0.056s0.008,0.04,0.008,0.056
	c0.008,0.024,0.008,0.048,0.016,0.064c0,0.016,0.008,0.024,0.008,0.04c0.008,0.032,0.016,0.072,0.024,0.104
	c0,0.016,0.008,0.024,0.008,0.04c0.008,0.024,0.008,0.048,0.016,0.072c0,0.008,0.008,0.032,0.008,0.04
	c0.008,0.024,0.008,0.048,0.016,0.072c0,0.008,0.008,0.032,0.008,0.04c0.008,0.032,0.016,0.064,0.016,0.088
	c0,0.008,0,0.008,0.008,0.016c0.008,0.04,0.016,0.08,0.024,0.112c0,0.008,0,0.008,0,0.016c0.008,0.032,0.016,0.072,0.024,0.104
	c0,0.008,0,0.016,0.008,0.024c0.008,0.032,0.016,0.064,0.024,0.096c0,0.008,0,0.008,0,0.016c0.024,0.12,0.048,0.24,0.08,0.36l0,0
	c0.544,2.568,1.128,5.12,1.752,7.656l7.768-1.904C13.912,310.344,12.832,305.24,11.92,300.176L11.92,300.176z M19.304,330.256
	l-7.632,2.392c0.216,0.68,0.424,1.352,0.648,2.032l0,0c0.008,0.04,0.024,0.072,0.032,0.112c0,0.008,0,0.008,0.008,0.016
	c0.008,0.032,0.024,0.064,0.032,0.104l0.008,0.016c0.016,0.04,0.024,0.08,0.04,0.112c0,0.008,0,0,0,0.008
	c0.008,0.032,0.024,0.072,0.032,0.104c0,0.008,0.008,0.024,0.008,0.032c0.008,0.024,0.016,0.048,0.024,0.08
	c0.008,0.016,0.008,0.024,0.016,0.04c0.008,0.024,0.016,0.048,0.024,0.072c0.008,0.016,0.008,0.024,0.016,0.04
	c0.008,0.032,0.024,0.064,0.032,0.096c0.008,0.024,0.008,0.032,0.016,0.056c0.008,0.016,0.008,0.032,0.016,0.048
	c0.008,0.016,0.016,0.04,0.016,0.056c0.008,0.016,0.008,0.032,0.016,0.04c0.008,0.024,0.016,0.04,0.024,0.064
	c0,0.008,0.008,0.016,0.008,0.024c0.016,0.056,0.04,0.112,0.056,0.168l0,0c0.008,0.024,0.016,0.056,0.024,0.08
	c0,0.008,0.008,0.016,0.008,0.024c0.008,0.032,0.016,0.048,0.024,0.08v0.008c1.288,3.912,2.664,7.776,4.136,11.6l7.472-2.872
	C22.56,340.088,20.848,335.168,19.304,330.256L19.304,330.256z M30.408,359.168l-7.272,3.328c0.688,1.504,1.384,2.992,2.104,4.48
	c0,0,0,0.008,0.008,0.008c0.016,0.032,0.024,0.056,0.04,0.08l0,0c0.04,0.08,0.08,0.168,0.12,0.248c0,0.008,0.008,0.016,0.008,0.016
	c0.016,0.032,0.024,0.04,0.032,0.072c0,0.008,0.008,0.016,0.008,0.024c0.008,0.024,0.024,0.056,0.032,0.072c0,0,0,0.008,0.008,0.008
	c0.024,0.048,0.048,0.096,0.072,0.152c0,0.008,0.008,0.016,0.008,0.024c0.008,0.024,0.024,0.04,0.032,0.064
	c0.008,0.008,0.008,0.024,0.016,0.032c0.008,0.024,0.024,0.04,0.032,0.064c0.008,0.008,0.008,0.024,0.016,0.032
	c0.024,0.048,0.048,0.096,0.072,0.144v0.008c0.008,0.024,0.016,0.032,0.024,0.056c0.008,0.016,0.016,0.032,0.024,0.048
	s0.016,0.04,0.024,0.056s0.016,0.032,0.024,0.056s0.016,0.024,0.024,0.048c0.016,0.024,0.024,0.048,0.04,0.072
	c0.008,0.016,0.016,0.032,0.024,0.048c0.008,0.024,0.024,0.048,0.04,0.072c0,0.008,0.016,0.032,0.016,0.04
	c0.008,0.024,0.024,0.04,0.032,0.064c0.008,0.016,0.016,0.024,0.024,0.04c0.008,0.024,0.024,0.048,0.032,0.072
	c0,0.008,0.008,0.024,0.016,0.024c0.016,0.032,0.032,0.064,0.048,0.096c0.008,0.016,0.008,0.024,0.016,0.04
	c0.008,0.024,0.024,0.048,0.032,0.064s0.008,0.024,0.016,0.04c0.008,0.024,0.024,0.048,0.032,0.072c0,0.008,0.008,0.024,0.016,0.032
	c0.016,0.032,0.032,0.072,0.048,0.104v0.008c0.016,0.032,0.032,0.064,0.048,0.096c0,0.008,0.008,0.024,0.016,0.032
	c0.016,0.024,0.024,0.056,0.04,0.08c0,0.008,0.008,0.016,0.008,0.024c0.016,0.032,0.032,0.064,0.048,0.096c0,0.008,0,0,0,0.008
	c0.016,0.032,0.032,0.072,0.056,0.104l0.008,0.008c0.016,0.032,0.032,0.064,0.048,0.096c0,0.008,0.008,0.016,0.008,0.024
	c0.016,0.032,0.032,0.064,0.048,0.096v0.008c0.04,0.072,0.072,0.144,0.112,0.216c0,0,0,0,0.008,0.008
	c0.016,0.032,0.032,0.064,0.048,0.104c0,0.008,0,0,0,0c0.056,0.12,0.112,0.224,0.168,0.336l0,0c1.064,2.12,2.152,4.232,3.272,6.32
	l7.048-3.784C34.872,368.512,32.552,363.848,30.408,359.168L30.408,359.168z M45.048,386.472l-6.8,4.216
	c0.808,1.296,1.616,2.584,2.44,3.864l0,0c0.016,0.024,0.032,0.048,0.048,0.08v0.008c0.056,0.08,0.096,0.152,0.152,0.232
	c0,0.008,0.008,0.008,0.008,0.008c0.024,0.032,0.032,0.048,0.048,0.072c0.008,0.008,0.008,0.016,0.016,0.024
	c0.04,0.064,0.088,0.136,0.128,0.2c0.008,0.008,0.016,0.024,0.024,0.032c0.016,0.024,0.016,0.032,0.032,0.048
	c0.008,0.016,0.016,0.032,0.032,0.048c0.016,0.024,0.016,0.032,0.032,0.048c0.008,0.016,0.016,0.032,0.032,0.048
	c0.016,0.024,0.032,0.048,0.048,0.08c0.008,0.016,0.024,0.032,0.032,0.048c0.016,0.024,0.016,0.024,0.032,0.048
	c0.008,0.016,0.024,0.032,0.032,0.056c0.008,0.016,0.016,0.032,0.024,0.04c0.016,0.016,0.024,0.04,0.04,0.056
	c0.008,0.016,0.016,0.024,0.024,0.04c0.016,0.032,0.04,0.064,0.056,0.088c0.008,0.016,0.008,0.008,0.016,0.024
	c0.016,0.024,0.032,0.048,0.048,0.072c0.008,0.016,0.008,0.016,0.016,0.032c0.016,0.024,0.032,0.048,0.048,0.072
	c0.008,0.008,0.008,0.016,0.016,0.024c0.024,0.032,0.04,0.064,0.064,0.096l0,0c0.024,0.032,0.04,0.064,0.064,0.096
	c0.008,0.008,0.008,0.008,0.008,0.016c0.016,0.032,0.04,0.056,0.056,0.088c0.008,0.008,0.008,0.008,0.008,0.016
	c0.048,0.064,0.088,0.136,0.136,0.2l0,0c0.024,0.032,0.04,0.064,0.064,0.096l0.008,0.008c0.064,0.104,0.136,0.208,0.208,0.312l0,0
	c1.56,2.36,3.16,4.696,4.8,7.008l6.52-4.632C50.648,395.184,47.76,390.84,45.048,386.472L45.048,386.472z M62.984,411.736
	l-6.224,5.024c0.472,0.584,0.944,1.16,1.416,1.744l0.008,0.008c0.08,0.096,0.16,0.192,0.232,0.288v0.008
	c0.024,0.032,0.048,0.064,0.072,0.096l0,0c0.048,0.064,0.104,0.128,0.152,0.184c0.008,0.008,0.008,0.008,0.016,0.016
	c0.024,0.024,0.04,0.048,0.064,0.08c0.008,0.008,0.008,0.008,0.008,0.008c0.056,0.064,0.104,0.128,0.152,0.184
	c0.008,0.008,0.008,0.008,0.016,0.016c0.024,0.024,0.04,0.048,0.064,0.072c0.008,0.008,0.016,0.016,0.016,0.024
	c0.024,0.024,0.04,0.048,0.064,0.072c0.008,0.008,0.008,0.008,0.008,0.016c0.024,0.032,0.048,0.056,0.072,0.088
	c0.008,0.008,0.008,0.016,0.016,0.016c0.016,0.024,0.04,0.048,0.056,0.072c0.008,0.016,0.016,0.016,0.024,0.024
	c0.016,0.016,0.032,0.04,0.048,0.056c0.008,0.016,0.016,0.016,0.024,0.032c0.024,0.032,0.048,0.056,0.072,0.088
	c0.008,0.008,0.008,0.008,0.008,0.008c0.024,0.024,0.04,0.048,0.064,0.072c0.008,0.008,0.024,0.024,0.024,0.032
	c0.016,0.016,0.032,0.04,0.048,0.056c0.008,0.016,0.016,0.024,0.024,0.032c0.016,0.016,0.032,0.04,0.048,0.056
	s0.024,0.024,0.04,0.048c0.016,0.024,0.04,0.04,0.056,0.064c0.008,0.016,0.024,0.024,0.032,0.032
	c0.016,0.016,0.024,0.032,0.04,0.048c0.008,0.016,0.024,0.032,0.032,0.04c0.016,0.016,0.024,0.032,0.04,0.048
	c0.008,0.016,0.024,0.024,0.032,0.04c0.024,0.024,0.04,0.048,0.064,0.08c0.016,0.016,0.024,0.032,0.04,0.048
	c0.008,0.016,0.024,0.024,0.032,0.04c0.008,0.016,0.032,0.032,0.04,0.048s0.024,0.024,0.032,0.04
	c0.016,0.016,0.024,0.032,0.04,0.048c0.016,0.016,0.024,0.032,0.04,0.048c0.024,0.024,0.04,0.048,0.056,0.072
	c0.008,0.016,0.024,0.024,0.032,0.04c0.016,0.016,0.024,0.032,0.04,0.048c0.008,0.008,0.016,0.024,0.032,0.032
	c0.016,0.016,0.024,0.032,0.04,0.048c0.008,0.008,0.016,0.024,0.024,0.032c0.032,0.04,0.056,0.064,0.088,0.104
	c0.008,0.008,0.016,0.016,0.016,0.024c0.016,0.016,0.032,0.04,0.048,0.056c0.008,0.008,0.016,0.016,0.024,0.024
	c0.016,0.016,0.032,0.04,0.048,0.056c0.008,0.008,0.008,0.008,0.016,0.016c0.048,0.064,0.12,0.136,0.168,0.2
	c0.032,0,0.032,0.008,0.032,0.008c0.024,0.032,0.04,0.04,0.056,0.064c0.008,0.008,0.008,0.008,0.016,0.016
	c0.056,0.064,0.12,0.144,0.176,0.208l0,0c0.024,0.024,0.04,0.048,0.056,0.072l0.008,0.008c0.08,0.096,0.16,0.184,0.24,0.288l0,0
	c0.024,0.024,0.04,0.048,0.064,0.072l0,0c0.064,0.072,0.12,0.144,0.184,0.216l0,0c0.024,0.024,0.04,0.048,0.064,0.072l0,0
	c0.168,0.192,0.336,0.384,0.504,0.584l0,0c0.08,0.096,0.168,0.192,0.248,0.288l0,0c0.632,0.728,1.256,1.448,1.896,2.168l0,0
	c0.024,0.024,0.04,0.048,0.064,0.072c0,0,0,0,0.008,0.008c0.088,0.096,0.16,0.184,0.248,0.28l0.008,0.008
	c0.024,0.024,0.04,0.04,0.056,0.064l0,0c0.064,0.072,0.12,0.136,0.184,0.208c0.008,0.008,0.008,0.008,0.016,0.016
	c0.024,0.024,0.032,0.032,0.056,0.056c0.008,0.008,0.016,0.016,0.016,0.024c0.056,0.056,0.112,0.128,0.168,0.184
	c0.008,0.008,0.008,0.016,0.016,0.016c0.024,0.024,0.032,0.032,0.048,0.056c0.008,0.008,0.016,0.016,0.024,0.024
	c0.016,0.016,0.032,0.04,0.048,0.056c0,0,0,0.008,0.008,0.008c0.04,0.04,0.064,0.072,0.104,0.112
	c0.008,0.008,0.016,0.024,0.024,0.032c0.016,0.016,0.024,0.024,0.04,0.048c0.008,0.016,0.024,0.024,0.032,0.04
	c0.016,0.016,0.024,0.032,0.04,0.048c0.008,0.008,0.024,0.024,0.032,0.032c0.024,0.024,0.048,0.048,0.064,0.072
	c0.016,0.016,0.024,0.032,0.04,0.04c0.016,0.016,0.024,0.024,0.04,0.04c0.016,0.016,0.024,0.024,0.04,0.04
	c0.008,0.008,0.024,0.032,0.04,0.04c0.016,0.016,0.024,0.032,0.04,0.048c0.008,0.008,0.024,0.024,0.032,0.04
	c0.024,0.024,0.048,0.048,0.072,0.08c0.008,0.008,0.016,0.016,0.024,0.032c0.016,0.016,0.032,0.04,0.056,0.056
	c0.008,0.008,0.016,0.016,0.024,0.032c0.016,0.024,0.04,0.04,0.056,0.064c0.008,0.008,0.016,0.016,0.016,0.016
	c0.032,0.032,0.056,0.064,0.08,0.088c0.008,0.008,0.008,0.008,0.008,0.008c0.032,0.032,0.056,0.056,0.072,0.08
	c0.008,0.008,0.008,0.008,0.016,0.016c0.024,0.024,0.048,0.048,0.064,0.072c0.008,0.008,0.008,0.008,0.008,0.016
	c0.056,0.056,0.112,0.12,0.16,0.176l0.008,0.008c0.024,0.032,0.056,0.056,0.08,0.088c0.008,0.008,0,0,0,0
	c0.192,0.216,0.392,0.432,0.592,0.648l5.896-5.408C69.616,419.688,66.216,415.736,62.984,411.736L62.984,411.736z M83.92,434.584
	l-5.552,5.76c3.832,3.696,7.8,7.288,11.856,10.736l5.184-6.096C91.488,441.656,87.624,438.152,83.92,434.584L83.92,434.584z
	 M107.52,454.656l-4.792,6.408c4.264,3.192,8.632,6.256,13.096,9.184l4.384-6.688C115.912,460.736,111.64,457.744,107.52,454.656
	L107.52,454.656z M133.432,471.648l-3.96,6.952c3.056,1.744,6.16,3.424,9.296,5.04l0,0c0.032,0.016,0.056,0.032,0.08,0.04h0.008
	c0.088,0.048,0.168,0.088,0.248,0.128l0,0c0.024,0.008,0.056,0.024,0.072,0.04c0.008,0,0.016,0.008,0.024,0.008
	c0.032,0.016,0.04,0.024,0.072,0.032c0.008,0.008,0.016,0.008,0.024,0.016c0.032,0.016,0.08,0.04,0.112,0.056
	c0.016,0.008,0.024,0.016,0.04,0.016c0.024,0.008,0.032,0.016,0.056,0.024c0.016,0.008,0.032,0.016,0.04,0.024
	c0.016,0.008,0.04,0.024,0.056,0.024c0.016,0.008,0.032,0.016,0.048,0.024c0.024,0.008,0.032,0.016,0.048,0.024
	c0.024,0.008,0.048,0.024,0.072,0.032c0.024,0.008,0.04,0.024,0.064,0.032c0.016,0.008,0.04,0.016,0.056,0.032
	c0.016,0.008,0.032,0.016,0.048,0.024s0.04,0.016,0.056,0.032c0.016,0.008,0.032,0.016,0.048,0.024
	c0.024,0.016,0.048,0.024,0.08,0.04c0.008,0,0.016,0.008,0.024,0.008c0.032,0.016,0.064,0.032,0.104,0.048
	c0.016,0.008,0.016,0.008,0.032,0.016c0.024,0.016,0.048,0.024,0.08,0.04c0.016,0.008,0.016,0.008,0.032,0.016
	c0.024,0.016,0.056,0.032,0.08,0.04l0.016,0.008c0.072,0.032,0.144,0.072,0.208,0.104c0.008,0,0.008,0.008,0.016,0.008
	c0.032,0.016,0.064,0.032,0.096,0.048c0.008,0,0,0,0.008,0c0.112,0.056,0.224,0.112,0.328,0.168l0,0
	c0.816,0.416,1.64,0.816,2.464,1.224l3.52-7.184C142.512,476.632,137.904,474.192,133.432,471.648L133.432,471.648z
	 M161.256,485.264l-3.056,7.392c4.144,1.712,8.344,3.328,12.6,4.824l0,0c0.12,0.04,0.232,0.08,0.352,0.128l0,0
	c0.04,0.016,0.072,0.024,0.112,0.04c0.008,0,0,0,0.008,0c0.08,0.024,0.152,0.056,0.232,0.08l0,0c0.04,0.016,0.072,0.024,0.112,0.04
	h0.008c0.04,0.016,0.072,0.024,0.112,0.04h0.008c0.08,0.024,0.152,0.056,0.232,0.08c0.008,0,0.008,0,0.016,0.008
	c0.032,0.008,0.072,0.024,0.104,0.032c0.008,0,0.008,0,0.016,0.008c0.04,0.016,0.072,0.024,0.112,0.04l0,0
	c0.04,0.016,0.08,0.024,0.12,0.04l0,0c0.04,0.016,0.072,0.024,0.112,0.04c0.008,0,0.008,0,0.016,0.008
	c0.032,0.008,0.064,0.024,0.096,0.032c0.008,0,0.008,0,0.008,0c0.08,0.032,0.16,0.056,0.232,0.08c0.008,0,0.008,0,0.016,0.008
	c0.032,0.008,0.064,0.024,0.096,0.032c0.008,0,0.016,0.008,0.024,0.008c0.032,0.008,0.064,0.024,0.096,0.032h0.008
	c0.04,0.016,0.08,0.024,0.112,0.04l0,0l2.584-7.568C170.88,489.064,166.008,487.224,161.256,485.264L161.256,485.264z
	 M190.56,495.28l-2.104,7.72c2.264,0.616,4.544,1.208,6.832,1.76h0.008c0.032,0.008,0.064,0.016,0.096,0.024h0.008
	c0.128,0.032,0.248,0.056,0.376,0.088c0.008,0,0.008,0,0.016,0c0.032,0.008,0.056,0.016,0.088,0.024c0.008,0,0.016,0,0.016,0.008
	c0.088,0.024,0.184,0.048,0.272,0.064l0,0c0.024,0.008,0.056,0.016,0.08,0.024c0.008,0,0.016,0,0.024,0.008
	c0.032,0.008,0.048,0.008,0.08,0.016c0.008,0,0.016,0,0.024,0.008c0.08,0.016,0.168,0.04,0.248,0.056
	c0.008,0,0.024,0.008,0.032,0.008c0.024,0.008,0.048,0.008,0.072,0.016c0.016,0,0.024,0.008,0.04,0.008
	c0.024,0.008,0.048,0.008,0.072,0.016c0.016,0,0.024,0.008,0.04,0.008c0.056,0.016,0.104,0.024,0.16,0.04l0,0
	c0.024,0.008,0.04,0.008,0.064,0.016c0.016,0,0.024,0.008,0.04,0.008c0.024,0.008,0.04,0.008,0.064,0.016
	c0.016,0,0.032,0.008,0.048,0.008c0.024,0.008,0.04,0.008,0.064,0.016c0.016,0,0.032,0.008,0.048,0.008
	c0.024,0.008,0.056,0.016,0.08,0.016c0.024,0.008,0.048,0.008,0.072,0.016s0.032,0.008,0.056,0.016
	c0.016,0.008,0.032,0.008,0.056,0.016c0.016,0,0.04,0.008,0.056,0.016s0.032,0.008,0.056,0.016s0.032,0.008,0.056,0.016
	s0.04,0.008,0.064,0.016s0.04,0.008,0.064,0.016s0.056,0.016,0.08,0.016c0.016,0,0.032,0.008,0.048,0.008
	c0.024,0.008,0.04,0.008,0.064,0.016c0.016,0,0.032,0.008,0.048,0.008c0.024,0.008,0.048,0.008,0.064,0.016
	c0.016,0,0.024,0.008,0.04,0.008c0.032,0.008,0.064,0.016,0.096,0.024c0.016,0,0.016,0,0.032,0.008
	c0.032,0.008,0.064,0.016,0.096,0.024c0.008,0,0.032,0.008,0.04,0.008c0.024,0.008,0.048,0.008,0.072,0.016
	c0.016,0,0.024,0.008,0.04,0.008c0.024,0.008,0.048,0.008,0.072,0.016c0.016,0,0.016,0.008,0.032,0.008
	c0.04,0.008,0.072,0.016,0.112,0.024c0.008,0,0.008,0,0.016,0c0.032,0.008,0.064,0.016,0.104,0.024c0.008,0,0.024,0.008,0.032,0.008
	c0.024,0.008,0.056,0.008,0.08,0.016c0.016,0,0.024,0.008,0.04,0.008c0.024,0.008,0.056,0.016,0.08,0.016
	c0.016,0,0.016,0,0.032,0.008c0.04,0.008,0.072,0.016,0.112,0.024c0.008,0,0,0,0.008,0c0.032,0.008,0.064,0.016,0.104,0.024
	c0.008,0,0.024,0.008,0.032,0.008c0.032,0.008,0.056,0.016,0.088,0.016c0.008,0,0.024,0.008,0.032,0.008
	c0.032,0.008,0.072,0.016,0.104,0.024h0.008c0.04,0.008,0.08,0.016,0.12,0.024c0.008,0,0,0,0.008,0
	c0.04,0.008,0.072,0.016,0.104,0.024c0.008,0,0.016,0,0.024,0.008c0.032,0.008,0.064,0.016,0.096,0.024c0.008,0,0.016,0,0.024,0.008
	c0.08,0.016,0.16,0.032,0.232,0.056l0,0c0.04,0.008,0.08,0.016,0.112,0.024c0.008,0,0,0,0.008,0c0.04,0.008,0.072,0.016,0.112,0.024
	c0.008,0,0,0,0.008,0c1.144,0.248,2.288,0.496,3.432,0.736l1.616-7.832C200.592,497.84,195.52,496.632,190.56,495.28L190.56,495.28z
	 M220.896,501.536l-1.12,7.92c5.248,0.744,10.56,1.328,15.904,1.752l0.624-7.976C231.168,502.824,225.984,502.256,220.896,501.536
	L220.896,501.536z M267.296,503.744C263.552,503.912,259.784,504,256,504c-1.408,0-2.808-0.008-4.216-0.032l-0.136,8
	c0.944,0.016,1.896,0.024,2.848,0.032h0.008c0.088,0,0.176,0,0.264,0l0,0c0.04,0,0.08,0,0.12,0c0.008,0,0.016,0,0.024,0
	c0.04,0,0.072,0,0.112,0h0.016c0.04,0,0.088,0,0.128,0c0.008,0,0,0,0.016,0c0.04,0,0.072,0,0.112,0c0.008,0,0.024,0,0.032,0
	c0.032,0,0.064,0,0.096,0c0.008,0,0.024,0,0.032,0c0.04,0,0.08,0,0.12,0c0.008,0,0.008,0,0.016,0c0.04,0,0.072,0,0.112,0
	c0.008,0,0.032,0,0.04,0c0.032,0,0.056,0,0.088,0c0.008,0,0.032,0,0.04,0c0.04,0,0.08,0,0.12,0l0,0c0.032,0,0.064,0,0.096,0
	c0.008,0,0.024,0,0.032,0c0.024,0,0.04,0,0.064,0c0.016,0,0.032,0,0.04,0c0.016,0,0.04,0,0.056,0s0.032,0,0.048,0s0.04,0,0.056,0
	s0.032,0,0.048,0s0.04,0,0.056,0s0.024,0,0.04,0c0.016,0,0.04,0,0.056,0s0.024,0,0.04,0c0.024,0,0.048,0,0.072,0
	c0.008,0,0.016,0,0.024,0c0.032,0,0.064,0,0.096,0c0.016,0,0.024,0,0.04,0c0.024,0,0.032,0,0.056,0c0.016,0,0.032,0,0.048,0
	s0.032,0,0.056,0c0.016,0,0.032,0,0.048,0s0.04,0,0.056,0s0.032,0,0.048,0s0.032,0,0.048,0s0.032,0,0.056,0s0.024,0,0.04,0
	c0.016,0,0.032,0,0.056,0c0.008,0,0.04,0,0.048,0c0.016,0,0.032,0,0.048,0s0.024,0,0.04,0c0.072,0,0.152,0,0.224,0h0.016
	c0.024,0,0.048,0,0.072,0c0.008,0,0.016,0,0.024,0c0.024,0,0.048,0,0.072,0c0.008,0,0.016,0,0.024,0c0.024,0,0.048,0,0.072,0
	c0.008,0,0.016,0,0.024,0c0.024,0,0.048,0,0.072,0c0.008,0,0.008,0,0.016,0c0.024,0,0.048,0,0.08,0h0.008
	c0.152,0,0.296,0,0.448-0.008l0,0c0.032,0,0.056,0,0.088,0h0.008c2.984-0.032,5.952-0.112,8.912-0.248L267.296,503.744
	L267.296,503.744z M298.104,500.44c-5.064,0.864-10.232,1.584-15.344,2.136l0.856,7.952c5.328-0.568,10.616-1.312,15.84-2.2
	L298.104,500.44L298.104,500.44z M328.248,493.312c-4.92,1.496-9.952,2.856-14.96,4.04l1.84,7.784c0.016,0,0.016-0.008,0.032-0.008
	h0.008c0.088-0.024,0.176-0.04,0.264-0.064c0.008,0,0.016-0.008,0.024-0.008c0.024-0.008,0.048-0.008,0.072-0.016
	c0.008,0,0.024-0.008,0.032-0.008c0.024-0.008,0.048-0.008,0.072-0.016c0.008,0,0.016-0.008,0.024-0.008
	c0.048-0.008,0.112-0.024,0.16-0.04h0.016c0.024-0.008,0.04-0.008,0.064-0.016c0.016,0,0.032-0.008,0.04-0.008
	c0.016,0,0.048-0.008,0.064-0.016c0.016,0,0.032-0.008,0.048-0.008c0.024-0.008,0.04-0.008,0.064-0.016
	c0.016-0.008,0.04-0.008,0.056-0.016c0.032-0.008,0.064-0.016,0.096-0.024c0.024-0.008,0.04-0.008,0.056-0.016
	c0.024-0.008,0.032-0.008,0.056-0.016c0.016-0.008,0.032-0.008,0.056-0.016c0.016,0,0.04-0.008,0.056-0.016s0.04-0.008,0.056-0.016
	c0.016,0,0.04-0.008,0.056-0.016c0.032-0.008,0.072-0.016,0.104-0.024c0.016,0,0.024-0.008,0.04-0.008
	c0.024-0.008,0.048-0.008,0.072-0.016c0.016,0,0.032-0.008,0.048-0.008c0.024-0.008,0.048-0.008,0.064-0.016
	c0.016,0,0.032-0.008,0.048-0.008c0.024-0.008,0.048-0.008,0.072-0.016c0.016,0,0.024-0.008,0.04-0.008
	c0.032-0.008,0.072-0.016,0.104-0.024c0.016,0,0.016-0.008,0.032-0.008c0.024-0.008,0.056-0.016,0.08-0.016
	c0.008,0,0.032-0.008,0.04-0.008c0.024-0.008,0.056-0.016,0.08-0.016c0.008,0,0.024-0.008,0.032-0.008
	c0.032-0.008,0.064-0.016,0.096-0.024c0.008,0,0.008,0,0.016-0.008c0.04-0.008,0.08-0.016,0.112-0.032l0.016-0.008
	c0.032-0.008,0.064-0.016,0.096-0.024c0.008,0,0.024-0.008,0.032-0.008c0.032-0.008,0.064-0.016,0.088-0.024
	c0.008,0,0.016,0,0.024-0.008c0.08-0.016,0.152-0.04,0.232-0.056h0.016c0.032-0.008,0.072-0.016,0.104-0.024l0.016-0.008
	c0.12-0.032,0.24-0.056,0.352-0.088h0.008c0.04-0.008,0.072-0.016,0.112-0.032h0.008c3.968-1,7.896-2.096,11.784-3.272
	L328.248,493.312L328.248,493.312z M357.256,482.456c-4.696,2.104-9.52,4.08-14.336,5.888l2.808,7.496
	c0.96-0.36,1.912-0.72,2.864-1.096h0.008c0.12-0.048,0.232-0.088,0.352-0.136l0.016-0.008c0.032-0.008,0.048-0.024,0.08-0.032
	c0.008,0,0.008,0,0.008,0c0.096-0.04,0.168-0.064,0.256-0.104h0.008c0.032-0.016,0.048-0.024,0.08-0.032
	c0.008,0,0.016-0.008,0.024-0.008c0.032-0.008,0.048-0.016,0.072-0.032c0.008,0,0.016-0.008,0.024-0.008
	c0.072-0.032,0.16-0.064,0.232-0.088c0.008-0.008,0.024-0.008,0.032-0.016c0.016-0.008,0.048-0.016,0.064-0.024
	s0.032-0.008,0.04-0.016c0.024-0.008,0.04-0.016,0.064-0.024c0.008,0,0.016-0.008,0.032-0.008c0.048-0.016,0.08-0.032,0.128-0.048
	c0.008-0.008,0.024-0.008,0.032-0.016c0.024-0.008,0.04-0.016,0.064-0.024c0.016-0.008,0.032-0.008,0.04-0.016
	c0.024-0.008,0.04-0.016,0.064-0.024c0.016-0.008,0.024-0.008,0.04-0.016c0.072-0.032,0.136-0.056,0.208-0.088
	c0.016-0.008,0.032-0.016,0.048-0.016c0.016-0.008,0.04-0.016,0.056-0.024s0.032-0.016,0.048-0.016
	c0.024-0.008,0.032-0.016,0.056-0.024c0.016-0.008,0.032-0.016,0.048-0.016c0.032-0.016,0.064-0.024,0.096-0.04
	c0.016-0.008,0.032-0.016,0.048-0.024c0.024-0.008,0.032-0.016,0.056-0.024c0.016-0.008,0.032-0.016,0.048-0.016
	c0.016-0.008,0.04-0.016,0.056-0.024s0.032-0.016,0.048-0.024s0.04-0.016,0.056-0.024c0.032-0.016,0.064-0.024,0.096-0.04
	c0.016-0.008,0.04-0.016,0.048-0.024c0.016-0.008,0.032-0.016,0.056-0.024c0.016-0.008,0.04-0.016,0.056-0.024
	s0.032-0.016,0.056-0.024s0.032-0.016,0.056-0.024c0.016-0.008,0.04-0.016,0.056-0.024c0.032-0.016,0.048-0.024,0.08-0.032
	c0.016-0.008,0.04-0.016,0.056-0.024c0.024-0.008,0.032-0.016,0.056-0.024c0.016-0.008,0.032-0.016,0.048-0.016
	c0.016-0.008,0.04-0.016,0.056-0.024s0.032-0.016,0.048-0.016c0.024-0.008,0.032-0.016,0.056-0.024s0.048-0.016,0.072-0.032
	c0.024-0.008,0.056-0.024,0.08-0.032c0.016-0.008,0.032-0.016,0.048-0.016c0.024-0.008,0.04-0.016,0.056-0.024
	s0.032-0.016,0.048-0.016c0.016-0.008,0.04-0.016,0.056-0.024s0.04-0.016,0.056-0.024c0.024-0.008,0.056-0.024,0.08-0.032
	c0.024-0.008,0.04-0.016,0.064-0.024s0.032-0.008,0.048-0.024c0.016-0.008,0.032-0.016,0.048-0.024s0.04-0.016,0.056-0.024
	s0.032-0.016,0.056-0.024c0.016-0.008,0.04-0.016,0.048-0.024c0.024-0.008,0.04-0.016,0.064-0.024s0.064-0.024,0.088-0.032
	c0.016-0.008,0.032-0.016,0.048-0.016c0.024-0.008,0.04-0.016,0.056-0.024s0.032-0.008,0.04-0.016
	c0.024-0.008,0.04-0.016,0.064-0.024c0.008-0.008,0.024-0.008,0.032-0.016c0.04-0.016,0.08-0.032,0.112-0.048
	c0.016-0.008,0.024-0.008,0.04-0.016c0.024-0.008,0.032-0.016,0.056-0.024c0.016-0.008,0.032-0.016,0.048-0.024
	s0.04-0.016,0.056-0.024s0.032-0.016,0.04-0.016c0.024-0.008,0.04-0.016,0.056-0.024s0.032-0.008,0.04-0.016
	c0.032-0.016,0.072-0.032,0.104-0.04c0.016-0.008,0.032-0.016,0.048-0.016c0.024-0.008,0.032-0.016,0.056-0.024
	c0.016-0.008,0.032-0.016,0.048-0.016c0.016-0.008,0.04-0.016,0.056-0.024s0.032-0.016,0.04-0.016
	c0.04-0.016,0.064-0.024,0.104-0.04c0.016-0.008,0.032-0.016,0.048-0.016c0.024-0.008,0.032-0.016,0.056-0.024
	c0.016-0.008,0.032-0.008,0.04-0.016c0.016-0.008,0.048-0.016,0.064-0.024s0.024-0.008,0.04-0.016
	c0.024-0.008,0.04-0.016,0.064-0.024c0.008-0.008,0.016-0.008,0.032-0.016c0.048-0.016,0.088-0.04,0.128-0.056
	c0.008,0,0.016-0.008,0.024-0.008c0.024-0.008,0.04-0.016,0.064-0.024c0.016-0.008,0.024-0.008,0.04-0.016
	c0.024-0.008,0.04-0.016,0.064-0.024c0.008-0.008,0.024-0.008,0.032-0.016c0.072-0.032,0.152-0.064,0.224-0.096
	c0.008-0.008,0.016-0.008,0.032-0.016c0.024-0.008,0.048-0.016,0.064-0.032c0.008-0.008,0.024-0.008,0.032-0.016
	c0.024-0.008,0.048-0.016,0.064-0.032c0.008,0,0.016-0.008,0.024-0.008c0.056-0.024,0.104-0.04,0.152-0.064c0,0,0,0,0.008,0
	c0.024-0.008,0.048-0.024,0.072-0.032c0.008-0.008,0.016-0.008,0.032-0.016c0.024-0.008,0.04-0.016,0.064-0.024
	c0.008-0.008,0.024-0.008,0.032-0.016c0.08-0.032,0.152-0.064,0.232-0.096c0,0,0.008-0.008,0.016-0.008
	c0.032-0.016,0.048-0.016,0.072-0.032c0.008,0,0.016-0.008,0.024-0.008c0.024-0.008,0.056-0.024,0.072-0.032h0.008
	c0.088-0.04,0.16-0.072,0.256-0.104c0.008,0,0.008-0.008,0.016-0.008c0.032-0.016,0.048-0.024,0.08-0.032h0.008
	c0.24-0.104,0.472-0.2,0.712-0.304l0,0c1.128-0.488,2.24-0.976,3.352-1.472L357.256,482.456L357.256,482.456z M384.68,468.048
	c-4.4,2.672-8.936,5.24-13.488,7.632l3.72,7.08c1.624-0.856,3.24-1.728,4.848-2.616h0.008c0.104-0.056,0.216-0.12,0.32-0.176
	c0.008,0,0.008,0,0.008-0.008c0.032-0.016,0.056-0.032,0.088-0.048c0.008,0,0.016-0.008,0.024-0.016
	c0.072-0.04,0.136-0.08,0.208-0.112l0.016-0.008c0.032-0.016,0.056-0.032,0.088-0.048c0.016-0.008,0.016-0.008,0.024-0.016
	c0.024-0.016,0.056-0.032,0.08-0.048c0.008,0,0.016-0.008,0.024-0.016c0.032-0.016,0.064-0.04,0.104-0.056l0.008-0.008
	c0.032-0.016,0.064-0.032,0.088-0.048c0.008,0,0.024-0.016,0.032-0.016c0.024-0.016,0.048-0.024,0.064-0.04
	c0.008,0,0.032-0.016,0.04-0.024c0.024-0.008,0.04-0.024,0.064-0.032c0.024-0.008,0.04-0.024,0.064-0.04
	c0.016-0.008,0.04-0.024,0.056-0.032c0.024-0.008,0.032-0.016,0.048-0.032c0.016-0.008,0.032-0.016,0.048-0.024
	s0.04-0.024,0.056-0.032c0.016-0.008,0.032-0.016,0.04-0.024c0.024-0.008,0.032-0.016,0.056-0.032h0.008
	c0.048-0.032,0.096-0.056,0.144-0.08c0.008-0.008,0.016-0.008,0.024-0.016c0.024-0.008,0.048-0.024,0.064-0.04
	c0.008-0.008,0.016-0.008,0.024-0.016c0.024-0.008,0.048-0.024,0.072-0.04l0,0c0.088-0.048,0.16-0.088,0.248-0.136l0.008-0.008
	c0.032-0.016,0.048-0.032,0.08-0.048l0,0c2.272-1.288,4.528-2.608,6.752-3.968L384.68,468.048L384.68,468.048z M410.096,450.328
	c-4.032,3.2-8.216,6.312-12.432,9.256l4.576,6.56c4.384-3.056,8.656-6.24,12.832-9.552L410.096,450.328L410.096,450.328z
	 M433.12,429.592c-3.6,3.672-7.368,7.28-11.192,10.728l5.352,5.944c3.208-2.888,6.336-5.856,9.392-8.904c0,0,0,0,0.008-0.008
	c0.024-0.024,0.04-0.04,0.064-0.064l0.008-0.008c0.056-0.056,0.12-0.12,0.176-0.176c0.008-0.008,0.016-0.016,0.024-0.024
	s0.032-0.032,0.048-0.048s0.024-0.024,0.04-0.04c0.016-0.016,0.024-0.024,0.04-0.04c0.016-0.016,0.032-0.032,0.048-0.048
	s0.04-0.04,0.056-0.056s0.032-0.032,0.048-0.048c0.008-0.008,0.024-0.024,0.032-0.032c0.016-0.016,0.032-0.032,0.048-0.048
	c0.008-0.008,0.024-0.024,0.032-0.032c0.016-0.016,0.04-0.04,0.056-0.056c0.008-0.008,0.016-0.016,0.024-0.024
	c0.024-0.024,0.048-0.048,0.072-0.072c0.008-0.008,0.016-0.016,0.024-0.024c0.024-0.024,0.04-0.04,0.064-0.064
	c0.008-0.008,0.016-0.016,0.016-0.024c0.056-0.056,0.112-0.112,0.168-0.168l0.008-0.008c0.024-0.024,0.056-0.056,0.08-0.08
	l0.008-0.008c0.32-0.328,0.64-0.648,0.96-0.976L433.12,429.592L433.12,429.592z M453.392,406.16
	c-3.12,4.088-6.408,8.136-9.776,12.032l6.048,5.232c1.824-2.112,3.616-4.248,5.376-6.416l0,0c0.056-0.064,0.104-0.128,0.16-0.192
	l0,0c0.024-0.032,0.048-0.056,0.072-0.088c0.008-0.008,0.008-0.008,0.008-0.016c0.048-0.064,0.096-0.12,0.152-0.184l0.008-0.008
	c0.024-0.024,0.04-0.056,0.064-0.08l0.016-0.016c0.024-0.024,0.04-0.056,0.064-0.08l0.008-0.016
	c0.024-0.032,0.048-0.064,0.072-0.096c0.008-0.008,0,0,0.008-0.008c0.024-0.024,0.04-0.056,0.064-0.08
	c0.008-0.016,0.016-0.016,0.024-0.032c0.016-0.024,0.032-0.04,0.048-0.064c0.008-0.008,0.016-0.024,0.024-0.032
	c0.024-0.024,0.04-0.048,0.056-0.072c0.008-0.016,0.008-0.008,0.016-0.024c0.024-0.024,0.04-0.048,0.064-0.072
	c0.008-0.008,0.032-0.032,0.032-0.032c0.016-0.016,0.024-0.032,0.04-0.048c0.008-0.016,0.024-0.032,0.032-0.04
	c0.008-0.016,0.024-0.032,0.032-0.048c0.016-0.016,0.032-0.04,0.048-0.056c0.016-0.024,0.032-0.04,0.048-0.064
	c0.016-0.016,0.024-0.024,0.032-0.048c0.008-0.016,0.024-0.024,0.032-0.04c0.008-0.016,0.024-0.032,0.04-0.048
	c0.008-0.016,0.024-0.024,0.032-0.04c0.016-0.016,0.024-0.032,0.04-0.048c0.024-0.024,0.04-0.048,0.064-0.08
	c0.008-0.016,0.024-0.032,0.032-0.048c0.008-0.016,0.024-0.024,0.032-0.04c0.016-0.016,0.024-0.032,0.04-0.056
	c0.008-0.008,0.016-0.024,0.024-0.032c0.016-0.016,0.024-0.032,0.04-0.056c0.008-0.008,0.016-0.016,0.024-0.024
	c0.032-0.04,0.056-0.072,0.088-0.112c0.008-0.008,0.008-0.016,0.016-0.024c0.016-0.016,0.032-0.04,0.048-0.056
	c0.008-0.008,0.016-0.016,0.024-0.032c0.016-0.016,0.032-0.04,0.048-0.056c0.008-0.008,0.016-0.016,0.024-0.024
	c0.048-0.064,0.096-0.128,0.152-0.184c0.008-0.008,0.016-0.016,0.024-0.032c0.008-0.016,0.032-0.04,0.04-0.056
	c0.008-0.008,0.016-0.024,0.024-0.032c0.016-0.016,0.032-0.04,0.04-0.056c0,0,0,0,0-0.008c0.032-0.04,0.064-0.08,0.104-0.128
	c0.008-0.008,0.016-0.016,0.024-0.024c0.016-0.016,0.032-0.04,0.048-0.056c0.008-0.008,0.016-0.016,0.024-0.024
	c0.016-0.016,0.024-0.032,0.04-0.056c0.008-0.016,0.016-0.024,0.032-0.04c0.024-0.032,0.048-0.064,0.072-0.096
	c0.008-0.008,0.016-0.016,0.024-0.032c0.016-0.016,0.032-0.04,0.04-0.056c0.008-0.008,0.016-0.016,0.024-0.032
	c0.016-0.016,0.032-0.04,0.04-0.056c0.008-0.008,0.016-0.024,0.024-0.032c0.024-0.032,0.056-0.064,0.08-0.096
	c0.008-0.008,0.016-0.024,0.024-0.032c0.016-0.016,0.024-0.032,0.04-0.048c0.008-0.016,0.024-0.024,0.032-0.04
	c0.008-0.016,0.024-0.032,0.032-0.048c0.008-0.016,0.024-0.032,0.032-0.04c0.008-0.016,0.024-0.032,0.032-0.048
	c0.024-0.024,0.04-0.056,0.064-0.08c0.008-0.016,0.016-0.024,0.032-0.04c0.016-0.016,0.024-0.032,0.04-0.048
	c0.008-0.016,0.024-0.024,0.032-0.04c0.016-0.016,0.032-0.04,0.04-0.056c0,0,0.024-0.024,0.024-0.032
	c0.024-0.024,0.04-0.056,0.064-0.08c0.008-0.008,0.008-0.016,0.016-0.024c0.016-0.024,0.04-0.048,0.056-0.072
	c0.008-0.008,0.016-0.024,0.024-0.024c0.016-0.024,0.032-0.048,0.056-0.064c0.008-0.008,0.016-0.016,0.024-0.024
	c0.024-0.032,0.048-0.056,0.064-0.088l0,0c0.024-0.032,0.048-0.064,0.072-0.096c0.008-0.008,0.008-0.008,0.016-0.016
	c0.024-0.024,0.04-0.056,0.064-0.08l0.008-0.016c0.384-0.496,0.76-0.984,1.136-1.48L453.392,406.16L453.392,406.16z
	 M470.592,380.392c-2.584,4.448-5.344,8.872-8.2,13.152l6.656,4.44c0.568-0.848,1.12-1.688,1.68-2.544l0,0
	c0.072-0.104,0.136-0.208,0.2-0.312c0-0.008,0.008-0.008,0.008-0.016c0.016-0.024,0.032-0.048,0.048-0.072v-0.008
	c0.048-0.072,0.096-0.152,0.144-0.224c0-0.008,0.008-0.016,0.016-0.016c0.016-0.024,0.024-0.04,0.048-0.072
	c0-0.008,0.008-0.008,0.008-0.016c0.04-0.064,0.088-0.144,0.136-0.208c0.008-0.008,0.016-0.016,0.016-0.032
	c0.016-0.024,0.024-0.04,0.04-0.056c0.008-0.016,0.016-0.024,0.024-0.04c0.016-0.024,0.024-0.032,0.032-0.056
	c0.008-0.016,0.016-0.024,0.024-0.04c0.016-0.024,0.048-0.072,0.064-0.096c0.008-0.016,0.016-0.024,0.024-0.04
	c0.016-0.024,0.016-0.032,0.032-0.048c0.008-0.016,0.024-0.032,0.032-0.048c0.008-0.016,0.024-0.032,0.032-0.048
	c0.008-0.016,0.024-0.04,0.032-0.056c0.008-0.016,0.016-0.024,0.024-0.04c0.016-0.032,0.04-0.056,0.056-0.088
	c0.008-0.016,0.024-0.032,0.032-0.048c0.008-0.016,0.024-0.032,0.032-0.048c0.008-0.016,0.016-0.032,0.032-0.048
	c0.008-0.016,0.024-0.04,0.032-0.056c0.008-0.016,0.016-0.024,0.024-0.04c0.016-0.032,0.04-0.056,0.056-0.088
	c0.008-0.008,0.016-0.024,0.016-0.032c0.016-0.024,0.024-0.04,0.04-0.064c0.008-0.016,0.016-0.024,0.024-0.04
	c0.016-0.016,0.024-0.04,0.04-0.056c0.008-0.016,0.016-0.024,0.024-0.04c0.016-0.024,0.032-0.048,0.048-0.072
	c0.008-0.008,0.008-0.016,0.016-0.024c0.016-0.032,0.04-0.064,0.056-0.096c0,0,0.016-0.024,0.016-0.032
	c0.016-0.024,0.032-0.048,0.04-0.064s0.016-0.024,0.024-0.032c0.016-0.024,0.032-0.048,0.04-0.072
	c0.008-0.016,0.008-0.008,0.016-0.024c0.024-0.032,0.04-0.064,0.064-0.096c0.008-0.008,0.008-0.008,0.008-0.016
	c0.016-0.024,0.032-0.056,0.056-0.08c0.008-0.008,0.008-0.016,0.016-0.024c0.016-0.024,0.032-0.048,0.048-0.072
	c0.008-0.008,0.008-0.016,0.016-0.024c0.04-0.064,0.08-0.128,0.12-0.192c0.008-0.008,0.008-0.016,0.016-0.024
	c0.016-0.024,0.032-0.048,0.048-0.08c0.008-0.008,0.008-0.016,0.016-0.024c0.016-0.032,0.04-0.056,0.056-0.088c0,0,0,0,0.008-0.008
	c0.024-0.032,0.04-0.064,0.064-0.104l0.008-0.008c0.016-0.032,0.04-0.056,0.056-0.088l0.008-0.016
	c0.016-0.032,0.04-0.056,0.056-0.088l0.008-0.008c0.04-0.072,0.088-0.136,0.128-0.208c0.008-0.008,0-0.008,0.008-0.008
	c0.016-0.032,0.04-0.064,0.056-0.096c0.008-0.008,0,0,0.008-0.008c0.04-0.064,0.088-0.136,0.128-0.208l0.008-0.008
	c0.016-0.032,0.04-0.064,0.056-0.088c0.008-0.008,0.008-0.008,0.008-0.016c0.064-0.104,0.128-0.208,0.192-0.304l0.008-0.008
	c0.088-0.136,0.176-0.28,0.256-0.416c0.008-0.008,0,0,0,0c1.224-1.984,2.424-3.984,3.6-6.008L470.592,380.392L470.592,380.392z
	 M484.448,352.688c-2.008,4.736-4.192,9.464-6.488,14.072l7.152,3.576c2.376-4.76,4.616-9.6,6.704-14.528L484.448,352.688
	L484.448,352.688z M494.712,323.464c-1.392,4.952-2.968,9.92-4.672,14.768l7.544,2.648c0.216-0.624,0.44-1.256,0.656-1.88l0,0
	c0.016-0.04,0.024-0.072,0.04-0.112l0,0c0.04-0.12,0.08-0.232,0.12-0.352v-0.008c0.056-0.152,0.104-0.312,0.16-0.464v-0.008
	c0.04-0.12,0.08-0.232,0.12-0.352v-0.008c0.008-0.032,0.024-0.072,0.032-0.104c0-0.008,0-0.008,0.008-0.016
	c0.04-0.112,0.08-0.224,0.112-0.344c0-0.008,0-0.008,0.008-0.016c0.008-0.032,0.024-0.064,0.032-0.096c0,0,0-0.008,0.008-0.016
	c0.024-0.08,0.048-0.152,0.072-0.232v-0.008c0.008-0.032,0.024-0.072,0.032-0.104l0.008-0.016c0.008-0.04,0.024-0.072,0.032-0.112
	v-0.008c0.024-0.08,0.048-0.152,0.08-0.232v-0.008c0.008-0.032,0.024-0.072,0.032-0.104v-0.008c0.016-0.04,0.024-0.072,0.04-0.112
	l0,0c0.024-0.08,0.048-0.152,0.08-0.232c0-0.008,0,0,0-0.008c0.008-0.04,0.024-0.072,0.032-0.112c0-0.008,0,0,0-0.008
	c0.04-0.112,0.072-0.232,0.112-0.344l0.008-0.016c0.008-0.04,0.024-0.072,0.04-0.112l0,0c0.04-0.12,0.08-0.232,0.112-0.352v-0.008
	c0.04-0.12,0.08-0.232,0.112-0.352l0,0c0.016-0.04,0.024-0.08,0.04-0.12c0-0.008,0,0.008,0,0c0.04-0.12,0.072-0.232,0.112-0.352
	v-0.008c0.088-0.28,0.176-0.552,0.264-0.832l0,0c0.424-1.352,0.84-2.704,1.248-4.064l0,0c0.048-0.16,0.096-0.32,0.144-0.48l0,0
	c0.032-0.12,0.072-0.24,0.104-0.36v-0.008c0.008-0.04,0.024-0.072,0.032-0.112v-0.008c0.024-0.08,0.048-0.152,0.072-0.232
	c0-0.008,0-0.008,0.008-0.016c0.008-0.032,0.016-0.064,0.032-0.096c0-0.008,0-0.016,0.008-0.024
	c0.008-0.032,0.016-0.064,0.032-0.104v-0.016c0.024-0.072,0.048-0.152,0.064-0.224c0-0.008,0.008-0.016,0.008-0.024
	c0.008-0.032,0.016-0.056,0.024-0.088c0-0.008,0.008-0.024,0.008-0.032c0.008-0.032,0.016-0.056,0.024-0.088
	c0-0.008,0.008-0.016,0.008-0.024c0.008-0.04,0.024-0.072,0.032-0.112c0.008-0.016,0-0.008,0.008-0.024
	c0.008-0.024,0.016-0.056,0.024-0.08c0.008-0.016,0.008-0.024,0.008-0.04c0.008-0.024,0.016-0.048,0.024-0.072
	c0-0.008,0.008-0.032,0.008-0.04c0.008-0.032,0.016-0.064,0.024-0.096c0-0.008,0.008-0.016,0.008-0.024
	c0.008-0.032,0.016-0.064,0.024-0.096c0.008-0.024,0.008-0.032,0.016-0.056c0.008-0.016,0.008-0.04,0.016-0.056
	s0.008-0.04,0.016-0.056s0.008-0.032,0.016-0.048c0.008-0.024,0.008-0.032,0.016-0.056c0.008-0.016,0.008-0.04,0.016-0.056
	c0.008-0.032,0.024-0.072,0.032-0.104c0.008-0.016,0.008-0.032,0.016-0.048c0.008-0.024,0.008-0.04,0.016-0.064
	c0-0.016,0.008-0.024,0.008-0.04c0.008-0.024,0.016-0.048,0.016-0.072c0-0.008,0.008-0.024,0.008-0.032
	c0.024-0.088,0.048-0.168,0.072-0.256v-0.008c0.008-0.032,0.016-0.056,0.024-0.088c0,0,0-0.008,0-0.016
	c0.008-0.024,0.008-0.032,0.016-0.056L494.712,323.464L494.712,323.464z M501.232,293.184c-0.768,5.088-1.704,10.224-2.784,15.248
	l7.824,1.68c0.184-0.848,0.36-1.704,0.536-2.552c0-0.008,0-0.008,0-0.016c0.008-0.032,0.016-0.064,0.024-0.096
	c0-0.008,0-0.016,0.008-0.024c0.008-0.032,0.016-0.064,0.024-0.096c0-0.008,0-0.008,0-0.016c0.008-0.04,0.016-0.072,0.024-0.112
	c0-0.016,0.008-0.024,0.008-0.04c0.008-0.024,0.008-0.04,0.016-0.064c0-0.016,0.008-0.04,0.008-0.056s0.008-0.04,0.008-0.056
	c0.008-0.024,0.008-0.032,0.008-0.056c0-0.016,0.008-0.032,0.008-0.056c0.016-0.072,0.032-0.16,0.048-0.232
	c0-0.008,0-0.016,0.008-0.032c0.008-0.032,0.008-0.048,0.016-0.08c0-0.008,0-0.016,0.008-0.024c0.008-0.024,0.008-0.056,0.016-0.08
	v-0.008c0.024-0.128,0.048-0.248,0.072-0.384v-0.008c0.768-3.856,1.44-7.736,2.032-11.656L501.232,293.184L501.232,293.184z
	 M503.92,262.312c-0.128,5.152-0.416,10.368-0.864,15.48l7.968,0.696c0.176-2.04,0.328-4.088,0.464-6.144c0-0.008,0-0.008,0-0.016
	c0-0.032,0-0.056,0.008-0.088c0-0.008,0-0.008,0-0.016c0.008-0.096,0.008-0.184,0.016-0.28c0-0.008,0-0.016,0-0.016
	c0-0.024,0-0.048,0.008-0.072c0-0.016,0-0.032,0-0.04c0-0.016,0-0.048,0.008-0.064c0-0.016,0-0.032,0-0.048c0-0.024,0-0.032,0-0.056
	s0-0.04,0-0.064c0-0.016,0-0.048,0-0.064c0-0.032,0-0.064,0.008-0.096c0-0.016,0-0.024,0-0.04c0-0.024,0-0.048,0.008-0.08
	c0-0.008,0-0.032,0-0.04c0-0.024,0-0.056,0.008-0.08c0-0.008,0-0.024,0-0.032c0-0.032,0-0.064,0.008-0.096v-0.024
	c0.008-0.08,0.008-0.16,0.016-0.24v-0.008c0-0.04,0.008-0.08,0.008-0.112v-0.016c0-0.04,0.008-0.08,0.008-0.12l0,0
	c0.152-2.664,0.256-5.336,0.328-8.016L503.92,262.312L503.92,262.312z M510.752,230.552l-7.96,0.784
	c0.504,5.112,0.856,10.312,1.04,15.464l7.992-0.288C511.632,241.144,511.272,235.824,510.752,230.552L510.752,230.552z
	 M505.624,198.984l-7.8,1.776c1.136,5.008,2.136,10.128,2.96,15.208l7.896-1.28c-0.48-2.952-1.008-5.896-1.592-8.808l0,0
	c-0.032-0.16-0.064-0.32-0.096-0.48c0-0.008,0-0.008,0-0.008c-0.024-0.136-0.048-0.248-0.08-0.384V205
	c-0.008-0.04-0.008-0.056-0.016-0.088c0-0.008,0-0.008,0-0.008c-0.008-0.04-0.008-0.056-0.016-0.088v-0.008
	c-0.016-0.088-0.032-0.168-0.056-0.256c0-0.008-0.008-0.024-0.008-0.032c-0.008-0.024-0.008-0.04-0.016-0.064
	c0-0.016-0.008-0.032-0.008-0.04c-0.008-0.024-0.008-0.04-0.016-0.072c0-0.008-0.008-0.024-0.008-0.032
	c-0.016-0.08-0.032-0.152-0.048-0.24c0-0.016-0.008-0.032-0.008-0.04c0-0.016-0.008-0.048-0.016-0.064
	c0-0.016-0.008-0.024-0.008-0.04c-0.008-0.024-0.008-0.04-0.016-0.064c0-0.016-0.008-0.024-0.008-0.04
	c-0.008-0.048-0.016-0.088-0.032-0.136c0-0.008-0.008-0.016-0.008-0.032c-0.008-0.024-0.008-0.04-0.016-0.064
	c0-0.016-0.008-0.024-0.008-0.04c-0.008-0.024-0.008-0.04-0.016-0.064c0-0.016-0.008-0.032-0.008-0.04
	c-0.008-0.024-0.008-0.04-0.016-0.064c0-0.016-0.008-0.024-0.008-0.04c-0.008-0.04-0.016-0.08-0.024-0.12
	c0-0.016-0.008-0.032-0.008-0.048c-0.008-0.024-0.008-0.032-0.016-0.056c0-0.016-0.008-0.032-0.008-0.048s-0.008-0.04-0.016-0.056
	s-0.008-0.032-0.008-0.048c-0.008-0.024-0.008-0.04-0.016-0.064c0-0.016-0.008-0.032-0.008-0.048
	c-0.008-0.032-0.016-0.064-0.024-0.096c-0.008-0.024-0.008-0.04-0.016-0.064s-0.008-0.032-0.016-0.056
	c0-0.016-0.008-0.032-0.008-0.048s-0.008-0.04-0.016-0.056c0-0.016-0.008-0.032-0.008-0.048c-0.008-0.024-0.008-0.032-0.016-0.056
	c0-0.016-0.008-0.04-0.008-0.056c-0.008-0.024-0.008-0.048-0.016-0.072s-0.008-0.056-0.016-0.08c0-0.016-0.008-0.032-0.008-0.048
	c-0.008-0.024-0.008-0.04-0.016-0.064c0-0.016-0.008-0.04-0.008-0.056s-0.008-0.04-0.008-0.056
	c-0.008-0.024-0.008-0.032-0.016-0.056c-0.008-0.016-0.008-0.04-0.016-0.056c-0.008-0.024-0.008-0.048-0.016-0.072
	s-0.008-0.056-0.016-0.08c0-0.016-0.008-0.032-0.008-0.048c-0.008-0.024-0.008-0.04-0.016-0.056c0-0.016-0.008-0.04-0.008-0.056
	c-0.008-0.016-0.008-0.04-0.016-0.056c-0.008-0.024-0.008-0.032-0.008-0.056c-0.008-0.024-0.008-0.048-0.016-0.064
	c-0.008-0.024-0.008-0.032-0.008-0.056c-0.008-0.032-0.016-0.064-0.016-0.088c0-0.016-0.008-0.04-0.008-0.056
	c-0.008-0.016-0.008-0.04-0.016-0.056c0-0.016-0.008-0.04-0.016-0.056c0-0.016-0.008-0.032-0.008-0.048
	c-0.008-0.024-0.008-0.032-0.016-0.056c0-0.016-0.008-0.032-0.008-0.048c-0.008-0.032-0.016-0.072-0.024-0.104
	c0-0.016-0.008-0.032-0.008-0.048c-0.008-0.024-0.008-0.032-0.016-0.056c0-0.016-0.008-0.032-0.008-0.048s-0.008-0.04-0.016-0.056
	c0-0.016-0.008-0.032-0.008-0.048c-0.008-0.024-0.008-0.032-0.016-0.064c0-0.016-0.008-0.032-0.008-0.048
	c-0.008-0.04-0.016-0.08-0.024-0.12c0-0.016-0.008-0.024-0.008-0.04c-0.008-0.024-0.008-0.04-0.016-0.064
	c0-0.016-0.008-0.032-0.008-0.04c0-0.016-0.008-0.048-0.016-0.064c0-0.016-0.008-0.024-0.008-0.04
	c-0.008-0.024-0.008-0.048-0.016-0.072c0-0.008-0.008-0.024-0.008-0.032c-0.008-0.048-0.024-0.088-0.032-0.136
	c0-0.008-0.008-0.024-0.008-0.032c-0.008-0.024-0.008-0.048-0.016-0.072c0-0.016-0.008-0.024-0.008-0.04
	c0-0.016-0.016-0.056-0.016-0.072c0-0.008-0.008-0.024-0.008-0.032c-0.008-0.024-0.008-0.048-0.016-0.072v-0.008
	c-0.024-0.088-0.04-0.176-0.064-0.264c0-0.008,0-0.016-0.008-0.024c-0.008-0.032-0.008-0.048-0.016-0.08
	c0-0.008,0-0.016-0.008-0.024C505.64,199.032,505.632,199,505.624,198.984L505.624,198.984z M496.584,168.312l-7.52,2.744
	c1.76,4.832,3.392,9.784,4.848,14.72l7.672-2.264c-0.424-1.44-0.864-2.88-1.312-4.312l0,0c-0.008-0.04-0.024-0.072-0.032-0.112
	v-0.008c-0.008-0.04-0.024-0.072-0.032-0.112v-0.008c-0.016-0.04-0.024-0.08-0.04-0.12c0-0.008,0,0.008,0,0
	c-0.008-0.032-0.024-0.072-0.032-0.104c0-0.008-0.008-0.024-0.008-0.032c-0.008-0.024-0.016-0.056-0.024-0.08
	c0-0.008-0.008-0.024-0.008-0.032c-0.008-0.032-0.016-0.064-0.032-0.096c0-0.008,0-0.008-0.008-0.016
	c-0.008-0.04-0.024-0.072-0.032-0.112c-0.008-0.016-0.008-0.016-0.008-0.032c-0.008-0.024-0.016-0.048-0.024-0.072
	c-0.008-0.016-0.008-0.032-0.016-0.048c-0.008-0.024-0.016-0.04-0.024-0.064c-0.008-0.016-0.008-0.032-0.016-0.048
	c-0.008-0.024-0.016-0.048-0.024-0.072s-0.016-0.064-0.024-0.08s-0.008-0.032-0.016-0.048c-0.008-0.024-0.016-0.04-0.024-0.064
	c-0.008-0.016-0.008-0.024-0.016-0.04c-0.008-0.024-0.016-0.04-0.024-0.064c-0.008-0.016-0.008-0.024-0.008-0.04
	c-0.024-0.08-0.048-0.16-0.072-0.232c0-0.008-0.008-0.016-0.008-0.024c-0.008-0.024-0.016-0.048-0.024-0.072
	c0-0.008-0.008-0.016-0.008-0.024c-0.008-0.024-0.016-0.056-0.024-0.08v-0.008c-0.032-0.096-0.056-0.176-0.088-0.264
	c0-0.008,0-0.008,0-0.008c-0.008-0.032-0.016-0.056-0.024-0.088c0-0.008,0-0.008-0.008-0.016c-0.464-1.432-0.936-2.84-1.424-4.264
	c0-0.008,0-0.008-0.008-0.016c-0.008-0.032-0.016-0.048-0.024-0.08c0-0.008-0.008-0.008-0.008-0.016
	c-0.024-0.08-0.056-0.168-0.08-0.24c0-0.008-0.008-0.024-0.008-0.032c-0.008-0.024-0.016-0.048-0.024-0.064
	c-0.008-0.008-0.008-0.024-0.016-0.032c-0.008-0.024-0.016-0.04-0.024-0.064c-0.008-0.016-0.008-0.032-0.016-0.048
	c-0.008-0.024-0.024-0.064-0.032-0.088c-0.008-0.024-0.016-0.048-0.024-0.072c-0.008-0.016-0.008-0.032-0.016-0.048
	c-0.008-0.024-0.016-0.04-0.024-0.064c-0.008-0.016-0.008-0.024-0.016-0.04c-0.008-0.024-0.016-0.048-0.024-0.08
	c0-0.008-0.008-0.024-0.008-0.032c-0.024-0.072-0.048-0.144-0.08-0.224c0-0.008,0-0.008-0.008-0.016
	c-0.008-0.032-0.024-0.064-0.032-0.104c0-0.008,0,0,0-0.008C497.288,170.256,496.944,169.28,496.584,168.312L496.584,168.312z
	 M483.768,139.016l-7.112,3.664c2.352,4.576,4.592,9.288,6.656,13.992l7.328-3.208C488.488,148.56,486.208,143.752,483.768,139.016
	L483.768,139.016z M467.384,111.552l-6.6,4.52c2.904,4.248,5.72,8.64,8.352,13.056l6.872-4.096c-1.424-2.392-2.88-4.736-4.384-7.08
	c0-0.008-0.008-0.008-0.008-0.016c-0.016-0.024-0.024-0.04-0.048-0.072c0-0.008-0.008-0.008-0.008-0.008
	c-0.048-0.08-0.096-0.152-0.144-0.224c0-0.008-0.008-0.008-0.008-0.016c-0.016-0.024-0.032-0.048-0.04-0.064
	c-0.008-0.008-0.008-0.016-0.016-0.024c-0.016-0.024-0.032-0.048-0.04-0.064l-0.008-0.016c-0.032-0.048-0.064-0.104-0.096-0.152l0,0
	c-0.016-0.024-0.024-0.04-0.04-0.064c-0.008-0.008-0.016-0.024-0.024-0.032c-0.016-0.024-0.024-0.04-0.04-0.056
	c-0.008-0.008-0.016-0.024-0.024-0.032c-0.04-0.064-0.08-0.128-0.128-0.192c-0.008-0.008-0.016-0.024-0.024-0.04
	s-0.024-0.04-0.032-0.056c-0.008-0.016-0.016-0.024-0.024-0.04c-0.016-0.024-0.024-0.032-0.032-0.056
	c-0.008-0.016-0.016-0.024-0.024-0.04c-0.024-0.032-0.04-0.064-0.064-0.096c-0.008-0.008-0.016-0.024-0.024-0.032
	c-0.016-0.024-0.024-0.04-0.04-0.056c-0.008-0.008-0.016-0.024-0.024-0.032c-0.016-0.024-0.024-0.032-0.032-0.056
	c-0.008-0.016-0.016-0.024-0.024-0.04c-0.016-0.024-0.04-0.064-0.056-0.088c-0.008-0.016-0.016-0.032-0.032-0.04
	c-0.016-0.024-0.016-0.032-0.032-0.048c-0.008-0.016-0.016-0.032-0.024-0.04c-0.008-0.016-0.024-0.04-0.032-0.048
	c-0.008-0.016-0.016-0.032-0.032-0.048c-0.016-0.024-0.016-0.032-0.032-0.048c-0.008-0.016-0.024-0.032-0.032-0.048
	c-0.016-0.024-0.04-0.056-0.056-0.08c-0.008-0.016-0.016-0.024-0.024-0.04s-0.024-0.04-0.032-0.048
	c-0.008-0.016-0.016-0.024-0.024-0.04c-0.016-0.024-0.024-0.032-0.032-0.056c-0.008-0.016-0.016-0.024-0.024-0.04
	c-0.016-0.024-0.04-0.056-0.056-0.088c-0.008-0.016-0.024-0.032-0.032-0.048c-0.016-0.024-0.016-0.032-0.032-0.048
	c-0.008-0.016-0.024-0.032-0.032-0.048c-0.016-0.024-0.024-0.032-0.032-0.048c-0.008-0.008-0.016-0.024-0.024-0.032
	c-0.048-0.064-0.08-0.128-0.128-0.192c-0.008-0.008-0.016-0.024-0.024-0.032c-0.008-0.016-0.032-0.048-0.04-0.056
	s-0.016-0.016-0.016-0.024c-0.016-0.024-0.032-0.04-0.04-0.064l0,0c-0.032-0.048-0.064-0.096-0.096-0.144
	c-0.008-0.008-0.008-0.016-0.016-0.024c-0.016-0.024-0.032-0.04-0.04-0.064c-0.008-0.008-0.008-0.016-0.016-0.024
	c-0.016-0.024-0.032-0.048-0.048-0.064v-0.008c-0.056-0.08-0.104-0.152-0.152-0.232l-0.008-0.008
	c-0.016-0.024-0.032-0.048-0.048-0.08l0,0C468.632,113.384,468.008,112.464,467.384,111.552L467.384,111.552z M447.712,86.336
	l-5.992,5.304c3.416,3.856,6.744,7.864,9.912,11.92l6.304-4.92c-2.584-3.312-5.248-6.56-7.984-9.736l0,0
	c-0.024-0.024-0.032-0.04-0.056-0.064c-0.008-0.008-0.008-0.016-0.016-0.016c-0.016-0.016-0.032-0.04-0.048-0.056
	c-0.008-0.008-0.016-0.016-0.024-0.024c-0.032-0.04-0.056-0.064-0.088-0.096c-0.008-0.008-0.016-0.024-0.024-0.032
	c-0.016-0.016-0.024-0.024-0.04-0.048c-0.016-0.016-0.024-0.032-0.04-0.048c-0.008-0.016-0.016-0.024-0.032-0.032
	c-0.016-0.024-0.032-0.04-0.056-0.064c-0.008-0.016-0.008-0.008-0.024-0.024c-0.024-0.032-0.048-0.056-0.072-0.088
	c-0.008-0.008-0.008-0.008-0.016-0.016c-0.024-0.024-0.04-0.048-0.064-0.072c-0.008-0.008-0.016-0.016-0.024-0.024
	c-0.024-0.024-0.04-0.048-0.064-0.072l-0.008-0.008c-0.056-0.064-0.104-0.12-0.16-0.184c-0.008-0.008,0,0,0,0
	C448.64,87.4,448.176,86.864,447.712,86.336L447.712,86.336z M425.056,63.76l-5.288,6.008c3.864,3.4,7.664,6.968,11.312,10.6
	l5.648-5.664C432.96,70.928,429.064,67.28,425.056,63.76L425.056,63.76z M399.784,44.168l-4.496,6.616
	c4.256,2.896,8.472,5.96,12.536,9.112l4.904-6.32c-2.192-1.696-4.408-3.36-6.656-4.992l0,0c-0.104-0.072-0.2-0.144-0.304-0.224
	l-0.008-0.008c-0.024-0.016-0.048-0.032-0.072-0.056l-0.008-0.008c-0.072-0.048-0.144-0.104-0.216-0.16
	c-0.008,0-0.008-0.008-0.016-0.008c-0.016-0.016-0.04-0.032-0.064-0.048c-0.008-0.008-0.016-0.016-0.024-0.016
	c-0.016-0.016-0.04-0.032-0.064-0.04c-0.008,0-0.016-0.008-0.024-0.016c-0.04-0.032-0.088-0.064-0.128-0.088
	c-0.008,0-0.008-0.008-0.016-0.008c-0.016-0.016-0.04-0.024-0.056-0.04c-0.008-0.008-0.024-0.016-0.032-0.024
	c-0.016-0.008-0.04-0.032-0.056-0.04s-0.024-0.016-0.04-0.024c-0.016-0.016-0.032-0.024-0.056-0.04
	c-0.024-0.016-0.056-0.04-0.08-0.056c-0.016-0.008-0.032-0.024-0.048-0.032c-0.016-0.008-0.032-0.024-0.04-0.032
	c-0.016-0.008-0.032-0.024-0.048-0.032c-0.016-0.008-0.032-0.024-0.048-0.032c-0.016-0.016-0.024-0.016-0.048-0.032
	c-0.024-0.016-0.04-0.032-0.064-0.048c-0.016-0.008-0.032-0.024-0.048-0.032c-0.024-0.016-0.048-0.032-0.064-0.048
	c-0.008-0.008-0.032-0.024-0.032-0.024c-0.024-0.016-0.04-0.032-0.056-0.04s-0.024-0.016-0.032-0.024
	c-0.032-0.024-0.056-0.04-0.088-0.064c-0.008-0.008,0,0-0.008,0c-0.032-0.024-0.064-0.048-0.096-0.064
	c-0.008-0.008-0.016-0.008-0.016-0.008c-0.032-0.024-0.056-0.04-0.08-0.056c0.008-0.024,0.008-0.024-0.008-0.032
	c-0.024-0.016-0.048-0.032-0.072-0.056l-0.016-0.016c-0.032-0.024-0.064-0.048-0.096-0.064c-0.008-0.008,0,0-0.008-0.008
	c-0.032-0.024-0.056-0.04-0.088-0.064c-0.008-0.008-0.016-0.008-0.016-0.016c-0.032-0.024-0.056-0.04-0.088-0.064l-0.016,0.008
	c-0.064-0.048-0.136-0.096-0.2-0.144l-0.008-0.008c-0.032-0.024-0.064-0.04-0.096-0.064c-0.008-0.008,0,0-0.008-0.008
	C402.12,45.768,400.96,44.96,399.784,44.168L399.784,44.168z M372.272,27.864l-3.64,7.128c4.576,2.336,9.144,4.856,13.576,7.48
	l4.08-6.88c-1.928-1.144-3.88-2.264-5.84-3.36h-0.008c-0.104-0.056-0.216-0.12-0.32-0.176c-0.008,0,0,0-0.008-0.008
	c-0.032-0.016-0.064-0.04-0.096-0.056c-0.008,0,0,0-0.008-0.008c-0.072-0.04-0.144-0.08-0.208-0.12l-0.008-0.008
	c-0.032-0.016-0.064-0.032-0.096-0.048c-0.008,0-0.008-0.008-0.016-0.008c-0.104-0.056-0.208-0.112-0.312-0.176
	c-0.008,0-0.008-0.008-0.008-0.008c-0.04-0.024-0.072-0.04-0.096-0.056l-0.008-0.008c-0.072-0.04-0.144-0.08-0.208-0.112
	l-0.016-0.008c-0.032-0.016-0.056-0.032-0.088-0.048c-0.008,0-0.008-0.008-0.016-0.008c-0.072-0.04-0.136-0.08-0.208-0.112
	l-0.008-0.008c-0.032-0.016-0.064-0.032-0.096-0.048c-0.008,0-0.016-0.008-0.024-0.008c-0.032-0.016-0.056-0.032-0.088-0.048
	l-0.016-0.008c-0.072-0.04-0.136-0.072-0.208-0.112c-0.008,0-0.008-0.008-0.016-0.008c-0.032-0.016-0.056-0.032-0.088-0.048
	c-0.008,0-0.008-0.008-0.016-0.008c-0.072-0.04-0.136-0.072-0.208-0.112l-0.016-0.008c-0.032-0.016-0.056-0.032-0.088-0.048
	c0,0-0.016-0.008-0.024-0.016c-0.032-0.016-0.056-0.032-0.088-0.048c-0.008,0-0.008-0.008-0.016-0.008
	c-0.032-0.016-0.064-0.04-0.104-0.056c-0.008,0-0.016-0.008-0.024-0.016c-0.024-0.016-0.056-0.032-0.08-0.04
	c-0.008,0-0.024-0.008-0.024-0.008c-0.032-0.016-0.056-0.032-0.08-0.048c-0.008,0-0.024-0.008-0.024-0.016
	c-0.064-0.04-0.136-0.072-0.2-0.112c-0.008,0-0.024-0.016-0.032-0.016c-0.024-0.016-0.048-0.024-0.072-0.04
	c-0.008,0-0.024-0.016-0.032-0.016c-0.024-0.016-0.056-0.032-0.08-0.048c-0.008,0-0.016-0.008-0.024-0.008
	c-0.032-0.016-0.064-0.032-0.104-0.056c-0.032-0.008-0.024-0.008-0.04-0.008c-0.024-0.016-0.048-0.024-0.072-0.04
	c-0.016-0.008-0.024-0.008-0.032-0.016c-0.024-0.016-0.048-0.024-0.072-0.04c-0.008,0-0.024-0.008-0.032-0.016
	c-0.032-0.016-0.064-0.032-0.096-0.056c-0.008,0-0.016-0.008-0.024-0.016c-0.024-0.016-0.048-0.024-0.072-0.04
	c-0.008,0-0.032-0.016-0.04-0.016c-0.024-0.008-0.04-0.024-0.064-0.032c-0.016-0.008-0.024-0.016-0.04-0.024
	c-0.024-0.016-0.048-0.024-0.072-0.04c-0.008,0-0.024-0.008-0.032-0.016c-0.032-0.016-0.064-0.032-0.096-0.048
	c-0.016-0.008-0.024-0.016-0.04-0.024c-0.016-0.008-0.04-0.016-0.056-0.032c-0.016-0.008-0.032-0.016-0.048-0.024
	s-0.032-0.016-0.048-0.024c-0.024-0.008-0.032-0.016-0.048-0.024s-0.04-0.016-0.056-0.032c-0.032-0.016-0.056-0.032-0.08-0.048
	c-0.016-0.008-0.032-0.016-0.048-0.024s-0.04-0.024-0.056-0.032s-0.032-0.016-0.048-0.024c-0.024-0.008-0.032-0.016-0.056-0.024
	c-0.016-0.008-0.032-0.016-0.048-0.024c-0.032-0.016-0.064-0.032-0.088-0.048c-0.016-0.008-0.032-0.016-0.056-0.024
	s-0.032-0.016-0.048-0.024s-0.032-0.016-0.04-0.024c-0.016-0.008-0.04-0.024-0.056-0.032s-0.024-0.016-0.04-0.024
	c-0.072-0.04-0.144-0.072-0.208-0.112c-0.008-0.008-0.016-0.008-0.024-0.016c-0.024-0.008-0.048-0.024-0.064-0.032
	c-0.008-0.008-0.016-0.008-0.032-0.016c-0.104-0.056-0.208-0.112-0.32-0.168c-0.008,0-0.008-0.008-0.008-0.008
	C373.704,28.608,373,28.24,372.272,27.864L372.272,27.864z M342.936,15.136l-2.72,7.528c4.84,1.744,9.68,3.672,14.4,5.72
	l3.184-7.336c-3.064-1.328-6.168-2.608-9.296-3.816l0,0c-0.032-0.008-0.056-0.024-0.088-0.032l0,0
	c-0.096-0.048-0.176-0.08-0.272-0.112h-0.008c-0.032-0.008-0.048-0.016-0.08-0.032c-0.008,0-0.016-0.008-0.016-0.008
	c-0.08-0.032-0.176-0.064-0.256-0.096h-0.008c-0.024-0.008-0.056-0.024-0.072-0.032c-0.008,0-0.016-0.008-0.024-0.008
	c-0.024-0.008-0.056-0.024-0.072-0.032c0,0-0.008-0.008-0.016-0.008c-0.08-0.032-0.16-0.064-0.24-0.088
	c-0.008-0.008-0.024-0.008-0.032-0.016c-0.024-0.008-0.048-0.016-0.064-0.024c-0.008-0.008-0.024-0.008-0.032-0.016
	c-0.024-0.008-0.048-0.016-0.072-0.024c-0.008,0-0.016-0.008-0.032-0.008c-0.048-0.016-0.08-0.032-0.128-0.048
	c-0.016-0.008-0.024-0.008-0.04-0.016c-0.024-0.008-0.04-0.016-0.064-0.024c-0.016-0.008-0.024-0.008-0.04-0.016
	c-0.016-0.008-0.048-0.016-0.064-0.024s-0.024-0.008-0.04-0.016c-0.08-0.032-0.144-0.056-0.224-0.088
	c-0.008-0.008-0.024-0.008-0.032-0.016c-0.024-0.008-0.04-0.016-0.064-0.024c-0.016-0.008-0.024-0.008-0.04-0.016
	c-0.024-0.008-0.04-0.008-0.064-0.016c-0.016-0.008-0.024-0.008-0.04-0.016c-0.04-0.016-0.08-0.032-0.12-0.048
	c-0.016-0.008-0.024-0.008-0.04-0.016c-0.024-0.008-0.04-0.016-0.064-0.024c-0.016-0.008-0.024-0.008-0.04-0.016
	c-0.016-0.008-0.048-0.016-0.064-0.024c-0.008,0-0.016-0.008-0.032-0.008c-0.024-0.008-0.04-0.016-0.064-0.024
	c-0.008,0-0.016-0.008-0.024-0.008c-0.048-0.016-0.088-0.032-0.136-0.048c-0.008-0.008-0.024-0.008-0.032-0.016
	c-0.024-0.008-0.04-0.016-0.064-0.024c-0.016-0.008-0.024-0.008-0.04-0.016c-0.024-0.008-0.04-0.016-0.064-0.024
	c-0.016-0.008-0.032-0.008-0.048-0.016c-0.048-0.016-0.096-0.032-0.144-0.056h-0.008c-0.016-0.008-0.04-0.016-0.056-0.024
	c-0.008-0.008-0.024-0.008-0.032-0.016c-0.016-0.008-0.048-0.016-0.064-0.024s-0.024-0.008-0.04-0.016
	c-0.024-0.008-0.04-0.016-0.064-0.024h-0.008c-0.064-0.024-0.104-0.04-0.168-0.064c0,0-0.008,0-0.008-0.008
	c-0.024-0.008-0.056-0.016-0.072-0.024c-0.008,0-0.016-0.008-0.024-0.008c-0.024-0.008-0.048-0.016-0.072-0.024
	c0,0-0.008-0.008-0.016-0.008c-0.08-0.032-0.168-0.064-0.248-0.088c-0.008,0-0.016-0.008-0.024-0.008
	c-0.032-0.008-0.048-0.016-0.072-0.024c-0.008,0-0.016-0.008-0.024-0.008c-0.112-0.04-0.232-0.088-0.352-0.128h-0.008
	C343.6,15.376,343.264,15.256,342.936,15.136L342.936,15.136z M312.232,6.192L310.48,14c5.024,1.128,10.072,2.424,15.008,3.864
	l2.24-7.68c-0.872-0.256-1.752-0.504-2.632-0.752l-0.016-0.008c-0.032-0.008-0.072-0.016-0.104-0.032h-0.008
	c-0.08-0.024-0.152-0.04-0.232-0.064c-0.008,0-0.016,0-0.024-0.008c-0.032-0.008-0.064-0.016-0.088-0.024
	c-0.008,0-0.016-0.008-0.024-0.008c-0.032-0.008-0.064-0.016-0.096-0.024l-0.024,0c-0.04-0.008-0.072-0.024-0.112-0.032
	c-0.008,0-0.008,0-0.016,0c-0.032-0.008-0.064-0.016-0.096-0.024c-0.008,0-0.024-0.008-0.032-0.008
	c-0.024-0.008-0.048-0.016-0.08-0.024c-0.016-0.008-0.024-0.008-0.04-0.008c-0.024-0.008-0.048-0.016-0.08-0.024
	c-0.016-0.008-0.016-0.008-0.032-0.008c-0.032-0.008-0.072-0.016-0.104-0.032c-0.016-0.008-0.024-0.008-0.04-0.008
	c-0.024-0.008-0.048-0.016-0.072-0.024c-0.016-0.008-0.024-0.008-0.04-0.008c-0.024-0.008-0.04-0.008-0.064-0.016
	c-0.016-0.008-0.032-0.008-0.048-0.016c-0.024-0.008-0.048-0.016-0.072-0.016c-0.016-0.008-0.024-0.008-0.04-0.008
	C323.48,9,323.44,8.992,323.408,8.976c-0.016-0.008-0.024-0.008-0.04-0.008c-0.024-0.008-0.048-0.016-0.064-0.016
	c-0.016-0.008-0.032-0.008-0.048-0.016c-0.024-0.008-0.04-0.008-0.064-0.016c-0.008,0-0.04-0.008-0.048-0.016
	c-0.024-0.008-0.056-0.016-0.08-0.024c-0.008,0-0.016-0.008-0.024-0.008c-0.032-0.008-0.072-0.016-0.104-0.032
	c-0.016-0.008-0.032-0.008-0.048-0.016c-0.024-0.008-0.04-0.008-0.064-0.016c-0.016,0-0.032-0.008-0.048-0.008
	c-0.024-0.008-0.04-0.008-0.064-0.016c-0.016-0.008-0.032-0.008-0.048-0.016c-0.024-0.008-0.048-0.016-0.08-0.024
	c-0.016-0.008-0.048-0.008-0.064-0.016c-0.016-0.008-0.04-0.008-0.064-0.016c-0.024-0.008-0.024-0.008-0.048-0.016
	c-0.016-0.008-0.04-0.008-0.056-0.016c-0.016-0.008-0.032-0.008-0.048-0.016c-0.024-0.008-0.04-0.008-0.064-0.016
	c-0.016-0.008-0.032-0.008-0.048-0.016c-0.024-0.008-0.056-0.016-0.08-0.024s-0.04-0.008-0.064-0.016
	c-0.024-0.008-0.04-0.008-0.064-0.016c-0.024-0.008-0.024-0.008-0.048-0.016c-0.024-0.008-0.04-0.008-0.064-0.016
	c-0.016-0.008-0.032-0.008-0.048-0.008c-0.024-0.008-0.048-0.016-0.072-0.016c-0.016-0.008-0.024-0.008-0.04-0.008
	c-0.04-0.008-0.072-0.016-0.112-0.032c-0.008,0-0.024-0.008-0.032-0.008c-0.024-0.008-0.056-0.016-0.08-0.024
	c-0.008,0-0.032-0.008-0.04-0.008c-0.024-0.008-0.048-0.016-0.072-0.016c-0.008,0-0.032-0.008-0.04-0.008
	c-0.032-0.008-0.056-0.016-0.088-0.024c-0.008,0-0.016-0.008-0.024-0.008c-0.04-0.008-0.072-0.016-0.112-0.032
	c-0.008,0-0.016-0.008-0.024-0.008c-0.032-0.008-0.056-0.016-0.088-0.024c-0.008,0-0.016,0-0.032,0
	c-0.024-0.008-0.056-0.016-0.08-0.024c-0.008,0-0.024-0.008-0.032-0.008c-0.072-0.016-0.152-0.04-0.224-0.056l-0.024-0.008
	c-0.032-0.008-0.064-0.016-0.088-0.024c-0.016-0.008-0.016,0-0.032-0.008c-0.032-0.008-0.064-0.016-0.088-0.024
	c-0.008,0-0.008,0-0.016-0.008c-0.08-0.024-0.152-0.04-0.232-0.064h-0.016c-0.032-0.008-0.072-0.016-0.104-0.024l-0.016-0.008
	c-0.16-0.04-0.32-0.08-0.472-0.12l0,0C317.112,7.328,314.68,6.744,312.232,6.192L312.232,6.192z M280.648,1.168l-0.76,7.96
	c5.128,0.488,10.304,1.144,15.376,1.952l1.256-7.904c-3.272-0.52-6.568-0.976-9.888-1.376l0,0c-0.168-0.016-0.328-0.04-0.496-0.056
	l0,0c-0.16-0.016-0.328-0.04-0.488-0.056h-0.008c-0.12-0.016-0.248-0.032-0.368-0.04h-0.008c-0.04-0.008-0.072-0.008-0.112-0.016
	h-0.016c-0.04-0.008-0.072-0.008-0.112-0.016l0,0c-0.08-0.008-0.16-0.016-0.248-0.024h-0.008c-0.032,0-0.072-0.008-0.104-0.008
	c-0.008,0-0.016,0-0.024,0c-0.032,0-0.072-0.008-0.104-0.008c-0.008,0-0.008,0-0.016,0c-0.08-0.008-0.16-0.016-0.24-0.024h-0.016
	c-0.032,0-0.072-0.008-0.104-0.008c-0.008,0-0.016,0-0.024,0c-0.032,0-0.064-0.008-0.104-0.008c-0.008,0-0.008,0-0.016,0
	c-0.12-0.016-0.24-0.024-0.36-0.04c-0.008,0-0.016,0-0.024,0c-0.032,0-0.064-0.008-0.096-0.008c-0.008,0-0.016,0-0.024,0
	c-0.04,0-0.072-0.008-0.112-0.008l0,0c-0.08-0.008-0.16-0.016-0.24-0.024c-0.008,0-0.016,0-0.024,0
	c-0.032,0-0.064-0.008-0.104-0.008c-0.008,0-0.008,0-0.016,0c-0.04,0-0.072-0.008-0.112-0.008h-0.008
	c-0.08-0.008-0.16-0.016-0.24-0.024c-0.008,0-0.008,0-0.024,0c-0.032,0-0.064-0.008-0.104-0.008c-0.008,0-0.008,0-0.016,0
	c-0.04,0-0.072-0.008-0.112-0.008h-0.008c-0.08-0.008-0.168-0.016-0.248-0.024h-0.008c-0.04,0-0.072-0.008-0.112-0.008h-0.016
	c-0.04,0-0.072-0.008-0.112-0.008h-0.008c-0.08-0.008-0.16-0.016-0.248-0.024h-0.008c-0.04,0-0.08-0.008-0.112-0.008h-0.016
	c-0.04,0-0.072-0.008-0.112-0.008h-0.008c-0.12-0.016-0.248-0.024-0.368-0.04c-0.008,0,0,0-0.008,0c-0.04,0-0.08-0.008-0.112-0.008
	c-0.008,0,0,0-0.008,0C280.816,1.184,280.728,1.176,280.648,1.168L280.648,1.168z M256,0v8c2.816,0,5.624,0.048,8.416,0.144
	l0.264-7.992c-1.24-0.04-2.48-0.072-3.72-0.096c0,0,0,0-0.008,0c-0.136,0-0.264-0.008-0.4-0.008c-0.008,0-0.016,0-0.016,0
	c-0.032,0-0.056,0-0.096,0h-0.008c-0.096,0-0.192,0-0.288-0.008c-0.008,0-0.024,0-0.032,0c-0.024,0-0.048,0-0.08,0
	c-0.016,0-0.024,0-0.04,0c-0.088,0-0.168,0-0.248,0c-0.016,0-0.032,0-0.048,0s-0.056,0-0.072,0s-0.032,0-0.048,0
	c-0.024,0-0.04,0-0.064,0s-0.048,0-0.072,0s-0.064,0-0.088,0c-0.024,0-0.04,0-0.064,0c-0.016,0-0.048,0-0.064,0s-0.04,0-0.056,0
	c-0.024,0-0.032,0-0.064,0c-0.024,0-0.056,0-0.08,0s-0.056,0-0.08,0s-0.048,0-0.072,0c-0.016,0-0.04,0-0.056,0
	c-0.024,0-0.04,0-0.064,0s-0.032,0-0.056,0s-0.056,0-0.08,0c-0.016,0-0.048,0-0.064,0c-0.032,0-0.056,0-0.088,0
	c-0.016,0-0.032,0-0.048,0c-0.024,0-0.048,0-0.072,0c-0.016,0-0.032,0-0.048,0c-0.024,0-0.056,0-0.08,0c-0.016,0-0.032,0-0.048,0
	c-0.032,0-0.072,0-0.104,0c-0.016,0-0.032,0-0.048,0c-0.024,0-0.048,0-0.072,0c-0.016,0-0.032,0-0.048,0c-0.032,0-0.056,0-0.088,0
	c-0.016,0-0.016,0-0.032,0c-0.04,0-0.08,0-0.12,0c-0.016,0-0.016,0-0.032,0c-0.032,0-0.056,0-0.088,0c-0.016,0-0.024,0-0.04,0
	c-0.032,0-0.064,0-0.088,0c-0.016,0-0.016,0-0.032,0c-0.04,0-0.08,0-0.12,0c-0.016,0-0.016,0-0.032,0c-0.032,0-0.064,0-0.088,0
	c-0.016,0-0.024,0-0.048,0c-0.032,0-0.056,0-0.088,0c-0.016,0-0.016,0-0.032,0c-0.04,0-0.08,0-0.12,0c-0.008,0-0.016,0-0.024,0
	c-0.032,0-0.064,0-0.096,0c-0.016,0-0.024,0-0.04,0c-0.032,0-0.056,0-0.088,0c-0.008,0-0.032,0-0.04,0c-0.04,0-0.08,0-0.12,0
	c-0.008,0,0,0-0.008,0c-0.04,0-0.072,0-0.112,0c-0.008,0-0.032,0-0.04,0c-0.032,0-0.064,0-0.096,0c-0.008,0-0.024,0-0.032,0
	C256.08,0,256.04,0,256,0L256,0L256,0z"/>
<circle style="fill:#32BEA6;" cx="256" cy="256" r="216.88"/>
<polygon style="fill:#FFFFFF;" points="313.2,355.12 150.776,253.632 313.456,160.288 321.424,174.16 181.904,254.208 
	321.68,341.552 "/>
<g>
	<circle style="fill:#E04F5F;" cx="162.56" cy="253.92" r="38.56"/>
	<circle style="fill:#E04F5F;" cx="317.44" cy="167.224" r="38.56"/>
	<circle style="fill:#E04F5F;" cx="317.44" cy="344.8" r="38.56"/>
</g>
<g>
</g>
<g>
</g>
<g>
</g>
<g>
</g>
<g>
</g>
<g>
</g>
<g>
</g>
<g>
</g>
<g>
</g>
<g>
</g>
<g>
</g>
<g>
</g>
<g>
</g>
<g>
</g>
<g>
</g>
</svg>
